<?xml version="1.0" standalone="no"?>
<!DOCTYPE svg PUBLIC "-//W3C//DTD SVG 20010904//EN"
 "http://www.w3.org/TR/2001/REC-SVG-20010904/DTD/svg10.dtd">
<svg version="1.0" xmlns="http://www.w3.org/2000/svg"
 width="509.000000pt" height="339.000000pt" viewBox="0 0 509.000000 339.000000"
 preserveAspectRatio="xMidYMid meet">

<g transform="translate(0.000000,339.000000) scale(0.100000,-0.100000)"
fill="#000000" stroke="none">
<path d="M260 3380 c25 -4 99 -12 165 -19 66 -7 142 -17 168 -22 26 -5 65 -9
87 -9 21 0 51 -5 65 -10 29 -11 103 -21 310 -44 72 -8 138 -17 147 -21 13 -5
18 1 23 29 4 20 14 36 24 39 20 4 -31 28 -110 51 -48 14 -119 16 -490 15 -239
-1 -414 -5 -389 -9z"/>
<path d="M1523 3383 c9 -2 23 -2 30 0 6 3 -1 5 -18 5 -16 0 -22 -2 -12 -5z"/>
<path d="M1695 3380 c3 -5 8 -10 11 -10 2 0 4 5 4 10 0 6 -5 10 -11 10 -5 0
-7 -4 -4 -10z"/>
<path d="M4074 3364 c-35 -20 -156 -55 -201 -57 -7 0 -13 -6 -13 -14 0 -12 12
-17 32 -14 20 2 107 -46 133 -75 27 -30 36 -34 81 -34 42 0 61 7 110 39 32 21
71 50 86 64 15 14 37 28 48 32 11 3 20 10 20 15 0 5 24 23 53 40 l52 30 -180
0 c-174 -1 -181 -2 -221 -26z"/>
<path d="M0 3237 l0 -124 158 -8 c86 -4 175 -8 197 -9 l40 -1 0 100 0 99 -40
9 c-22 4 -67 12 -100 17 -33 5 -94 16 -135 24 -130 26 -120 35 -120 -107z"/>
<path d="M3421 3316 c-12 -14 -3 -30 21 -39 12 -4 15 -2 11 8 -3 8 -10 12 -17
8 -6 -3 -7 -2 -3 2 10 12 39 16 32 5 -9 -15 29 -16 58 -2 28 14 38 28 12 18
-8 -3 -35 -2 -60 3 -31 6 -48 5 -54 -3z"/>
<path d="M1318 3290 c2 -16 6 -30 8 -30 2 0 4 14 4 30 0 17 -4 30 -8 30 -5 0
-7 -13 -4 -30z"/>
<path d="M3638 3303 c6 -2 18 -2 25 0 6 3 1 5 -13 5 -14 0 -19 -2 -12 -5z"/>
<path d="M3707 3299 c7 -7 15 -10 18 -7 3 3 -2 9 -12 12 -14 6 -15 5 -6 -5z"/>
<path d="M3812 3294 c-17 -18 -15 -29 2 -15 11 10 17 8 25 -6 9 -16 10 -16 8
4 -2 27 -18 35 -35 17z"/>
<path d="M441 3276 c-8 -10 -7 -174 1 -181 2 -2 35 -4 73 -6 l70 -4 3 79 c2
43 0 82 -5 86 -4 5 -36 15 -70 23 -46 11 -65 11 -72 3z"/>
<path d="M3485 3250 c-4 -6 -11 -8 -16 -5 -5 4 -9 -1 -9 -9 0 -11 -9 -16 -28
-16 -23 0 -38 -13 -82 -70 -30 -38 -58 -70 -62 -70 -4 0 -10 -20 -13 -44 -4
-25 -14 -47 -22 -50 -10 -4 -13 -18 -10 -56 3 -28 1 -47 -4 -44 -5 3 -9 -2 -9
-10 0 -9 11 -18 25 -22 21 -5 23 -8 10 -21 -17 -16 -20 -27 -6 -18 5 3 12 1
16 -5 3 -5 2 -10 -4 -10 -6 0 -3 -13 7 -29 13 -23 14 -32 4 -44 -7 -8 -21 -13
-31 -10 -21 5 -39 -14 -47 -53 -4 -22 3 -46 30 -97 20 -37 36 -69 36 -71 0 -2
-14 -6 -30 -10 -63 -12 -97 -76 -69 -128 20 -38 118 -160 140 -176 21 -14 24
-14 41 8 10 12 20 21 23 19 2 -3 -28 -37 -67 -77 -57 -58 -78 -73 -109 -78
-21 -4 -36 -11 -33 -16 3 -5 -3 -12 -13 -14 -16 -4 -20 -15 -21 -55 0 -27 -5
-57 -11 -66 -7 -13 -4 -26 10 -49 10 -17 21 -49 24 -70 3 -21 7 -57 10 -79 3
-22 8 -53 12 -70 4 -16 7 -34 7 -39 1 -5 6 -11 11 -13 11 -3 11 35 -1 165 -4
54 -3 82 3 82 12 0 53 -90 53 -114 0 -8 4 -17 9 -20 5 -4 8 -18 5 -34 -2 -15
-6 -54 -8 -87 -3 -33 -7 -70 -10 -82 -3 -14 0 -23 7 -23 7 0 6 -4 -3 -10 -8
-5 -11 -10 -6 -10 5 0 4 -6 -2 -12 -5 -7 -9 -37 -8 -66 1 -29 -2 -56 -7 -59
-5 -3 -3 -9 4 -14 10 -6 11 -11 3 -16 -5 -5 -10 -24 -9 -43 1 -19 -1 -39 -4
-45 -6 -11 -7 -19 -9 -95 -3 -73 -10 -84 -45 -67 -29 13 -37 37 -12 37 8 0 15
-4 15 -9 0 -5 7 -12 16 -15 14 -5 13 -1 -3 27 -11 18 -23 45 -27 60 -3 15 -13
27 -21 27 -8 0 -15 8 -16 18 0 9 -2 24 -4 32 -2 8 -13 59 -25 112 -11 54 -25
109 -30 124 -6 14 -8 29 -5 34 3 5 1 11 -5 15 -5 3 -10 15 -10 25 0 18 -45
147 -80 225 -9 22 -23 55 -30 73 -7 18 -20 32 -29 32 -12 0 -13 -2 -3 -9 8 -4
13 -12 13 -17 -1 -5 5 -31 13 -59 8 -27 17 -63 19 -80 2 -16 7 -37 11 -46 4
-9 6 -20 5 -25 -1 -5 0 -11 1 -14 5 -15 12 -49 13 -75 1 -16 8 -36 15 -44 10
-11 11 -16 2 -21 -9 -6 -9 -9 0 -12 7 -2 14 -17 15 -33 2 -17 4 -30 5 -30 1 0
4 -19 6 -42 2 -31 0 -43 -10 -43 -16 0 -26 22 -26 56 0 13 -5 24 -12 24 -6 0
-8 3 -5 6 3 4 1 16 -5 28 -13 23 -15 28 -17 52 0 8 -5 13 -10 10 -5 -4 -7 2
-4 13 3 10 0 22 -6 25 -10 7 -17 -24 -11 -49 1 -5 5 -26 7 -45 3 -19 16 -72
29 -118 28 -97 28 -98 10 -83 -8 7 -20 35 -26 64 -7 29 -19 63 -26 77 l-13 25
0 -30 c0 -16 4 -50 10 -74 11 -51 5 -67 -12 -25 -20 53 -78 288 -85 349 -4 33
-15 84 -25 113 -10 28 -16 52 -13 52 2 0 -3 11 -12 25 -9 14 -14 28 -10 32 3
3 -4 13 -15 21 -17 11 -18 16 -8 23 11 7 10 12 -5 26 -18 16 -19 16 -7 1 19
-26 -2 -22 -25 4 -10 12 -13 18 -6 14 6 -4 12 -2 12 3 0 6 -9 11 -20 11 -22 0
-101 -113 -154 -218 -59 -118 -175 -463 -212 -632 -16 -71 -19 -126 -18 -340
1 -243 2 -260 28 -353 14 -53 26 -106 26 -116 0 -27 48 -81 71 -81 17 0 19 -8
19 -95 l0 -95 31 0 32 0 -8 78 c-13 139 -16 127 36 130 l46 3 7 -73 c12 -127
15 -138 42 -138 27 0 26 -11 3 144 -4 32 -6 63 -3 67 3 5 30 9 60 9 50 0 55
-2 49 -19 -10 -31 -25 -133 -25 -168 l0 -33 310 0 c275 0 309 2 303 15 -3 9
-2 15 3 14 22 -4 22 3 1 24 -12 13 -25 22 -28 21 -3 -2 -6 3 -6 10 0 8 6 12
13 9 6 -2 15 1 19 7 3 6 3 10 -2 9 -4 -1 -21 1 -36 6 -21 6 -26 12 -22 26 4
11 2 19 -4 19 -6 0 -11 5 -11 11 0 5 5 7 10 4 6 -3 10 -2 10 4 0 10 7 9 52 -3
42 -12 55 3 21 25 -19 13 -23 19 -11 19 9 0 20 5 24 12 5 8 0 9 -14 6 -12 -4
-22 -2 -22 3 0 5 6 9 13 10 6 0 3 4 -8 8 -18 7 -17 9 10 24 67 36 93 46 113
40 27 -7 28 -19 3 -35 -11 -6 -17 -18 -13 -26 3 -10 1 -13 -6 -8 -7 4 -12 2
-12 -3 0 -6 4 -11 9 -11 5 0 18 -3 28 -7 16 -6 17 -5 4 11 -13 16 -13 17 5 14
12 -2 18 2 16 11 -4 22 9 52 20 45 6 -4 5 -10 -3 -15 -8 -5 -9 -9 -4 -9 6 0
20 7 32 15 19 14 21 13 25 -10 3 -13 1 -22 -3 -19 -5 3 -9 0 -9 -5 0 -6 6 -11
14 -11 8 0 17 -4 20 -9 4 -5 -2 -7 -13 -4 -10 3 -22 0 -25 -6 -4 -6 -1 -11 6
-11 8 0 14 -10 14 -24 0 -14 -3 -23 -7 -20 -4 2 -10 0 -14 -6 -3 -5 -1 -10 4
-10 6 0 11 -4 11 -10 0 -5 -7 -10 -15 -10 -8 0 -15 -5 -15 -11 0 -5 6 -7 13
-3 6 4 3 -2 -7 -14 -11 -12 -25 -22 -33 -22 -19 0 -16 -18 5 -24 9 -2 1 -5
-18 -4 -60 0 -71 -2 -65 -12 3 -5 2 -10 -4 -10 -6 0 -8 -7 -5 -15 4 -9 0 -15
-10 -15 -9 0 -16 -4 -16 -9 0 -6 38 -9 85 -9 47 1 85 5 85 10 0 4 12 8 26 8
16 0 23 4 18 12 -4 6 -3 8 3 5 6 -4 14 0 17 9 4 10 13 13 26 9 27 -9 26 4 -2
14 -21 8 -21 8 -2 27 10 10 19 26 19 34 0 8 11 17 25 21 23 6 22 7 -10 9 -34
2 -34 2 -8 10 33 10 79 50 57 50 -11 1 -10 4 4 14 9 7 17 18 17 25 0 6 5 11
11 11 5 0 7 5 4 10 -3 6 -1 10 4 10 6 0 11 9 11 20 0 11 7 23 15 26 22 9 51
-18 51 -46 0 -21 4 -25 24 -23 14 1 19 0 13 -3 -21 -9 -15 -20 10 -19 30 2 69
24 62 36 -8 11 9 11 60 -1 22 -5 110 -10 195 -10 85 0 187 -6 225 -12 79 -13
116 -7 145 22 20 20 37 67 27 76 -3 3 -14 1 -24 -4 -13 -7 -28 -3 -57 15 -36
24 -38 27 -22 39 10 7 15 17 11 23 -4 7 6 11 26 11 l31 0 -23 20 c-19 15 -21
22 -11 28 13 9 21 42 31 134 1 4 13 5 29 2 23 -5 29 -1 38 23 7 21 7 34 -3 53
l-13 25 0 -32 c0 -17 -4 -35 -10 -38 -5 -3 -10 -2 -10 4 0 5 -15 13 -32 17
-20 4 -27 9 -18 12 8 3 18 11 23 18 4 7 15 11 25 8 11 -4 13 -3 5 3 -7 5 -10
17 -8 28 2 11 4 23 4 27 1 4 12 19 25 33 14 15 22 33 19 40 -6 17 36 95 52 95
27 0 82 -49 113 -100 36 -60 39 -84 17 -138 l-15 -37 20 24 c31 36 27 104 -10
167 -47 82 -135 124 -263 124 -60 0 -68 2 -65 17 2 12 13 18 31 18 15 -1 27 4
27 10 0 13 -63 14 -73 1 -5 -7 -7 -6 -6 4 3 35 0 42 -15 28 -8 -8 -10 -15 -4
-19 5 -3 3 -9 -6 -12 -10 -4 -16 -1 -16 8 0 8 -4 15 -8 15 -5 0 -7 17 -5 37 1
20 -2 43 -8 50 -8 9 -7 14 4 18 10 4 14 19 12 48 -2 38 1 44 33 63 l35 21 -31
5 c-27 4 -30 2 -19 -11 7 -9 2 -8 -11 3 l-22 19 21 23 c11 12 48 37 82 54 63
33 187 110 187 116 0 2 -23 -9 -50 -24 -114 -61 -233 -120 -210 -104 13 9 36
27 50 40 21 18 22 21 5 16 -11 -4 -28 -14 -37 -22 -29 -25 -20 2 10 30 15 14
56 46 91 72 35 25 58 46 53 46 -6 0 -14 -5 -17 -10 -3 -5 -15 -10 -26 -10 -10
0 -19 -4 -19 -10 0 -5 -6 -10 -13 -10 -7 0 -40 -24 -72 -52 -55 -50 -58 -51
-39 -19 31 55 115 142 172 178 28 18 52 36 52 39 0 6 -11 0 -50 -26 -14 -9
-43 -27 -65 -40 -35 -21 -38 -22 -25 -5 8 11 35 39 60 62 32 30 40 43 28 43
-10 0 -18 -4 -18 -10 0 -5 -5 -10 -11 -10 -5 0 -7 5 -3 12 4 7 3 8 -4 4 -7 -4
-12 -14 -12 -22 0 -8 -4 -13 -8 -10 -21 13 -88 -100 -162 -272 -13 -29 -25
-50 -28 -48 -2 3 12 44 32 91 21 48 36 90 34 95 -6 18 -44 -27 -62 -73 -10
-26 -24 -53 -31 -61 -8 -7 -11 -17 -7 -21 4 -5 -2 -5 -13 -1 -36 14 -40 11
-38 -24 5 -76 1 -109 -15 -119 -7 -4 -10 -15 -6 -24 5 -14 2 -16 -12 -11 -11
4 -16 4 -12 0 8 -10 -14 -36 -24 -29 -5 2 -4 -7 1 -20 8 -22 7 -26 -12 -30
-12 -3 -37 -4 -54 -1 -24 2 -33 0 -33 -10 0 -10 -10 -14 -35 -12 -19 2 -43 -3
-52 -10 -34 -25 -34 -14 -1 33 82 116 152 220 167 248 9 16 43 69 76 117 55
80 78 100 81 70 1 -7 2 -16 3 -22 3 -27 20 -5 31 40 7 27 26 68 43 91 18 23
39 52 48 65 20 31 101 115 125 131 16 11 15 11 -9 3 -15 -5 -31 -9 -35 -9 -22
4 -33 -3 -29 -15 4 -9 -3 -16 -16 -20 -14 -3 -34 -28 -55 -65 -42 -76 -58 -88
-48 -35 4 21 10 57 13 79 3 28 16 51 41 78 46 47 32 48 -24 1 -40 -32 -44 -33
-44 -15 0 18 -3 20 -19 9 -11 -7 -18 -15 -15 -19 2 -4 -3 -15 -12 -24 -20 -19
-94 -163 -94 -182 0 -7 -5 -13 -11 -13 -5 0 -8 -4 -5 -9 3 -5 -1 -22 -9 -37
-8 -16 -15 -37 -15 -46 0 -10 -4 -18 -9 -18 -6 0 -8 -8 -6 -18 1 -9 -5 -33
-16 -52 -10 -19 -19 -29 -20 -22 -2 15 -6 31 -9 35 -1 1 -4 14 -6 29 -12 72
119 338 218 444 l29 31 -29 -1 c-17 -1 -28 -4 -26 -7 2 -4 -3 -10 -12 -13 -9
-4 -14 -9 -11 -12 3 -3 -9 -21 -28 -39 -18 -19 -39 -53 -47 -77 -13 -36 -19
-43 -39 -40 -13 2 -78 7 -144 11 l-120 8 -30 -36 c-16 -19 -39 -45 -50 -56
-11 -12 -22 -32 -23 -46 -2 -13 -8 -25 -13 -27 -5 -2 -9 -10 -9 -18 0 -8 -6
-14 -14 -14 -8 0 -23 -3 -33 -7 -16 -5 -15 -4 3 13 25 23 39 55 20 48 -12 -5
-54 -69 -46 -69 10 -1 -36 -91 -55 -110 -12 -11 -28 -32 -38 -47 -14 -23 -14
-26 -2 -22 20 8 19 -10 -1 -42 -15 -22 -15 -24 0 -18 9 3 16 10 16 16 0 5 6 6
13 2 6 -4 9 -4 5 1 -4 4 4 17 18 27 14 11 24 28 22 37 -2 9 3 22 12 29 13 10
12 11 -4 5 -26 -9 -14 10 24 37 l29 21 -14 -35 c-8 -20 -15 -41 -15 -48 0 -16
55 66 72 107 6 16 14 32 18 35 3 3 36 46 74 95 69 92 95 117 97 93 9 -94 8
-98 -16 -104 -16 -4 -22 -11 -18 -21 5 -12 7 -12 14 -1 7 10 9 9 9 -3 0 -19
-17 -35 -45 -42 -18 -4 -18 -5 3 -6 21 -1 33 -21 12 -21 -5 0 -10 -9 -10 -20
0 -11 -5 -20 -11 -20 -6 0 -8 -8 -5 -17 3 -10 -1 -31 -9 -47 -8 -15 -13 -32
-10 -36 3 -5 1 -11 -4 -14 -5 -3 -7 -15 -4 -26 3 -11 1 -20 -5 -20 -5 0 -12
-12 -15 -27 -3 -16 -11 -41 -18 -58 -11 -28 -17 -51 -21 -82 -1 -7 -5 -13 -10
-13 -5 0 -6 -4 -3 -10 3 -6 2 -10 -3 -10 -5 0 -12 -14 -16 -31 -3 -17 -10 -28
-15 -25 -5 3 -11 -1 -15 -9 -3 -8 0 -15 6 -15 6 0 3 -9 -7 -20 -9 -10 -15 -25
-13 -32 9 -22 -10 -58 -26 -52 -14 5 -30 44 -17 44 3 0 7 17 8 37 1 21 6 53
11 71 6 17 8 32 4 32 -4 0 -1 4 7 9 7 5 14 21 16 37 1 16 14 55 29 87 14 32
26 63 26 70 0 7 14 41 30 75 33 69 36 82 19 82 -5 0 -8 -4 -5 -8 3 -5 -3 -18
-12 -28 -10 -10 -27 -34 -37 -51 -11 -18 -22 -33 -25 -33 -3 0 -6 -12 -7 -26
-1 -32 -16 -42 -54 -38 -20 3 -29 -1 -29 -11 0 -9 -9 -15 -22 -15 -22 1 -22 1
-5 14 12 9 14 16 8 21 -6 3 -11 1 -11 -5 0 -6 -3 -9 -7 -7 -5 2 -16 -4 -25
-15 -17 -17 -17 -18 12 -19 17 -1 35 -3 40 -4 6 -1 15 -3 20 -4 6 0 10 -9 10
-18 0 -15 -2 -16 -10 -3 -6 10 -10 11 -10 3 0 -7 -6 -13 -14 -13 -8 0 -18 -5
-22 -12 -4 -6 -3 -8 2 -5 6 3 16 2 24 -4 11 -6 12 -9 2 -9 -7 0 -10 -5 -7 -10
3 -5 1 -10 -5 -10 -6 0 -8 -5 -5 -10 3 -5 0 -10 -8 -10 -18 0 -29 -24 -21 -45
4 -9 0 -15 -10 -15 -17 0 -18 -20 -1 -32 6 -4 0 -8 -11 -8 -17 0 -20 -5 -16
-25 2 -14 1 -25 -4 -24 -21 4 -35 -2 -33 -13 4 -31 -2 -47 -20 -53 -13 -4 -17
-12 -14 -25 6 -21 -10 -26 -41 -14 -11 4 -13 12 -7 27 5 12 9 25 9 30 0 4 3
20 6 35 6 31 15 89 22 147 2 22 9 55 15 72 6 18 12 45 14 61 4 31 61 173 119
293 39 83 116 170 144 165 9 -2 26 0 37 5 l20 8 -20 0 c-17 1 -15 4 9 16 15 8
32 15 38 15 23 0 47 43 85 150 66 186 84 253 71 261 -26 16 -38 -3 -38 -62 0
-100 -58 -191 -128 -202 -12 -2 -30 -11 -42 -22 -24 -22 -38 -15 -15 8 18 18
20 47 3 47 -6 0 -1 11 11 24 12 13 21 27 20 32 -3 19 2 33 17 48 10 11 11 16
3 16 -8 0 -7 6 4 18 21 23 27 88 8 84 -11 -2 -10 3 3 23 9 14 12 25 6 25 -5 0
-10 -4 -10 -10 0 -5 -7 -10 -15 -10 -9 0 -12 -6 -8 -17 5 -12 2 -15 -10 -10
-9 3 -20 1 -24 -6 -10 -16 -70 -51 -101 -59 -19 -5 -22 -3 -18 10 5 14 4 14
-8 -1 -10 -13 -25 -17 -53 -15 -38 3 -39 3 -25 28 13 23 13 23 9 3 -4 -18 -1
-23 14 -23 10 0 19 5 19 11 0 5 4 8 9 4 5 -3 13 -1 16 5 4 6 3 10 -2 9 -4 -1
-17 -1 -28 0 -16 1 -17 3 -6 10 8 5 12 18 9 29 -4 14 -2 19 7 16 7 -3 11 -15
9 -27 -4 -21 -4 -21 5 -2 4 11 7 23 4 28 -2 4 2 7 9 7 7 0 2 9 -11 19 -18 14
-21 20 -11 26 9 5 11 4 6 -3 -4 -7 -3 -12 3 -12 5 0 12 8 14 18 4 16 5 16 6 0
1 -20 9 -22 30 -9 9 6 10 11 2 15 -6 4 -11 1 -12 -6 0 -7 -4 -4 -8 7 -5 11 -5
25 0 31 11 13 -30 44 -58 45 -10 0 7 8 37 18 62 19 49 36 -16 21 -36 -8 -63
-5 -33 4 8 2 30 8 49 14 31 9 28 10 -25 6 -33 -3 -70 -7 -81 -10 -16 -3 -23 2
-27 17 -4 16 -3 18 9 8 9 -7 14 -8 14 -1 0 6 8 11 18 11 9 0 26 2 37 5 11 2
24 5 28 5 5 1 7 7 5 13 -3 7 2 19 9 27 12 11 12 15 1 23 -10 6 -2 18 32 47 25
22 48 37 52 35 5 -3 8 0 8 7 0 7 8 5 20 -6 14 -13 20 -31 20 -61 0 -37 -3 -44
-27 -52 -25 -9 -26 -10 -5 -11 12 -1 22 -5 22 -9 0 -12 -34 -42 -48 -42 -6 0
-13 -4 -17 -9 -7 -12 26 -7 53 8 17 9 21 7 25 -17 3 -15 -1 -39 -8 -54 -13
-26 -12 -27 6 -18 10 6 19 16 19 22 0 5 9 8 20 5 18 -5 20 0 20 43 0 27 -4 52
-10 55 -5 3 -10 12 -10 18 0 7 4 6 10 -3 8 -13 10 -12 10 4 0 13 -5 17 -18 14
-13 -4 -18 1 -20 16 -1 17 1 18 9 6 9 -12 10 -10 6 8 -3 12 -1 20 4 16 5 -3 9
-12 9 -20 0 -8 4 -13 9 -10 5 3 12 -9 16 -27 l8 -32 4 27 c6 37 -20 88 -72
143 -42 46 -42 46 -14 40 22 -5 29 -3 29 9 0 9 6 16 13 17 6 0 3 4 -8 9 -19 8
-18 9 4 9 32 1 22 10 -15 14 -49 5 -60 17 -35 37 21 15 22 17 5 31 -16 12 -17
12 -11 -3 3 -10 2 -18 -3 -18 -6 0 -10 7 -10 16 0 8 -4 12 -10 9 -15 -9 -12 8
6 33 12 17 25 22 62 23 42 0 44 1 22 10 -14 6 -42 9 -62 7 -26 -2 -38 1 -38 9
0 18 -18 16 -37 -3 -9 -8 -22 -13 -29 -10 -8 3 -14 0 -14 -6 0 -6 -7 -19 -15
-28 -15 -16 -14 -18 9 -22 17 -4 23 -1 19 9 -3 8 2 13 12 13 22 0 14 -22 -13
-36 -12 -6 -19 -14 -15 -17 3 -4 1 -7 -5 -7 -7 0 -12 7 -12 15 0 8 -6 15 -14
15 -9 0 -12 8 -9 25 5 26 62 75 87 75 18 0 76 32 76 43 0 4 -15 8 -32 8 -31 2
-31 2 -5 6 33 5 35 18 5 34 -19 10 -20 13 -6 23 21 15 49 72 40 81 -4 5 -2 5
4 2 6 -4 19 -1 29 7 15 11 16 15 4 34 -10 16 -16 18 -26 10 -7 -6 -13 -7 -13
-2 0 5 -5 2 -10 -6 -8 -13 -10 -12 -10 4 0 13 -4 16 -12 9 -7 -5 -31 -11 -52
-12 -22 -1 -43 -4 -48 -7 -4 -3 -8 0 -8 5 0 6 -4 11 -10 11 -5 0 -7 -7 -4 -15
4 -10 0 -15 -12 -15 -16 0 -17 -2 -4 -11 12 -8 12 -10 -4 -7 -11 2 -18 7 -17
12 3 10 -41 35 -52 28 -5 -2 0 -10 9 -16 13 -10 14 -15 4 -21 -9 -5 -11 -4 -6
3 4 7 1 12 -8 12 -10 0 -13 -6 -10 -17 4 -12 3 -14 -3 -6 -10 13 -93 12 -93
-1 0 -5 -3 -7 -6 -4 -3 3 0 15 8 27 10 17 10 23 -1 33 -12 11 -13 10 -8 -5 4
-10 3 -15 -2 -12 -8 4 -8 25 -2 65 1 3 5 -1 10 -9 8 -12 16 -9 42 17 18 17 30
35 26 39 -4 3 -7 1 -7 -5 0 -7 -7 -12 -16 -12 -8 0 -12 5 -9 10 3 6 4 10 1 10
-3 0 -8 -5 -11 -10z m219 -118 c3 -5 -1 -9 -9 -9 -8 0 -12 4 -9 9 3 4 7 8 9 8
2 0 6 -4 9 -8z m-134 -341 c0 -24 -4 -28 -27 -28 -24 0 -25 1 -9 12 11 8 13
15 7 20 -18 10 -12 25 9 25 15 0 20 -7 20 -29z m-54 -8 c-2 -3 -22 -9 -43 -13
-38 -9 -38 -9 -16 10 14 10 31 16 43 13 12 -3 19 -8 16 -10z m134 7 c0 -5 -7
-10 -16 -10 -8 0 -12 5 -9 10 3 6 10 10 16 10 5 0 9 -4 9 -10z m35 -60 c3 0 4
10 1 23 l-6 22 12 -23 c7 -13 17 -21 26 -17 8 3 12 0 10 -7 -3 -7 -18 -14 -34
-15 -25 -2 -32 2 -42 30 l-11 32 18 -22 c11 -13 22 -23 26 -23z m75 -40 c23
-7 23 -8 3 -9 -36 -2 -53 -12 -53 -34 0 -19 1 -20 20 -2 20 18 20 17 20 -8 0
-15 -5 -27 -11 -27 -6 0 -22 -9 -36 -20 -14 -11 -32 -20 -39 -20 -18 0 -18 44
0 59 7 6 16 25 20 41 6 32 24 37 76 20z m-133 -122 c-3 -8 -6 -5 -6 6 -1 11 2
17 5 13 3 -3 4 -12 1 -19z m243 -383 c0 -8 -2 -15 -4 -15 -2 0 -6 7 -10 15 -3
8 -1 15 4 15 6 0 10 -7 10 -15z m-50 -129 c0 -8 -6 -17 -12 -19 -10 -4 -10 -6
-1 -6 6 -1 15 4 18 9 3 6 12 10 18 10 7 0 1 -9 -13 -20 -46 -36 -89 -19 -48
19 26 25 38 27 38 7z m-411 -86 c2 -57 22 -99 56 -120 19 -12 35 -29 35 -39 0
-10 18 -26 45 -39 45 -22 86 -79 85 -119 -1 -10 -7 -1 -14 20 -17 47 -43 77
-67 77 -10 0 -25 7 -33 16 -9 8 -16 10 -16 4 0 -8 -6 -8 -20 0 -11 6 -20 16
-20 22 0 7 5 6 15 -2 23 -19 26 -8 7 25 -10 16 -27 29 -39 30 -12 1 -20 -2
-18 -6 6 -9 -32 -19 -75 -19 -75 0 -185 74 -158 107 16 20 30 15 23 -8 -8 -24
10 -41 73 -69 43 -20 102 -26 115 -13 4 3 0 17 -8 30 -9 13 -13 28 -10 33 4 6
-1 13 -10 16 -10 4 -12 10 -6 18 5 6 12 31 16 56 6 36 9 41 16 25 4 -11 8 -31
8 -45z m-209 17 c0 -13 -7 -32 -15 -43 -15 -18 -15 -18 -13 11 3 25 16 53 26
55 1 0 2 -10 2 -23z m-480 -201 c0 -9 4 -24 9 -34 9 -16 109 -356 117 -397 9
-44 -41 78 -83 205 -24 74 -50 144 -56 155 -6 11 -12 22 -13 25 0 3 -3 12 -6
20 -20 59 -25 79 -21 83 8 9 53 -40 53 -57z m570 -24 c0 -15 -5 -34 -10 -42
-10 -15 -12 -6 -12 50 0 29 1 32 12 25 6 -3 10 -18 10 -33z m-644 -8 c-3 -7 2
-15 11 -18 8 -4 13 -13 10 -20 -3 -8 -1 -16 5 -18 6 -2 11 -13 12 -23 1 -11
16 -48 33 -82 18 -35 30 -63 27 -63 -3 0 -2 -6 3 -12 4 -7 8 -20 9 -28 1 -24
15 -51 56 -113 44 -64 78 -134 77 -157 0 -8 -6 -1 -15 15 -12 26 -13 27 -9 5
16 -71 17 -90 6 -90 -6 0 -19 -16 -28 -35 -10 -21 -24 -35 -35 -35 -17 0 -22
-10 -19 -37 1 -7 -3 -13 -9 -13 -5 0 -10 -6 -10 -14 0 -8 -7 -17 -16 -20 -13
-5 -14 -9 -4 -21 11 -13 10 -14 -4 -9 -19 7 -21 -6 -3 -25 8 -10 8 -12 0 -7
-7 3 -27 0 -45 -7 l-33 -14 32 -7 c17 -4 34 -14 37 -21 3 -8 2 -14 -2 -14 -4
1 -14 1 -22 0 -13 -1 -13 -2 0 -11 29 -18 3 -18 -64 0 -37 11 -103 25 -147 31
-43 7 -76 16 -73 21 3 4 0 8 -5 8 -6 0 -11 -4 -11 -10 0 -5 -8 -10 -17 -9 -11
0 -13 3 -5 6 6 2 12 11 12 19 0 8 6 11 17 7 11 -4 14 -3 9 5 -4 7 -1 12 7 12
10 0 13 -7 10 -20 -3 -12 0 -20 6 -20 7 0 9 5 5 12 -5 8 -2 9 9 5 11 -4 17 -1
17 8 0 8 9 15 19 15 11 0 22 4 26 10 3 5 12 7 19 4 8 -3 17 -1 20 4 6 10 -51
8 -101 -3 -12 -3 -25 -1 -28 5 -4 6 8 10 27 11 18 1 25 3 16 6 -10 2 -18 11
-18 19 0 8 -5 12 -10 9 -6 -4 -8 -11 -5 -16 4 -5 0 -9 -8 -9 -10 0 -13 8 -9
26 3 16 9 23 18 20 7 -3 16 0 20 6 4 6 3 8 -3 5 -14 -9 -31 13 -28 36 2 9 0
17 -4 17 -4 0 -8 11 -9 26 -1 14 -7 34 -12 45 -8 13 -8 19 0 19 8 0 8 6 0 20
-15 29 -21 132 -6 127 6 -2 10 -12 8 -21 -2 -10 4 -23 13 -29 10 -8 16 -30 18
-63 1 -40 5 -50 16 -46 10 4 13 1 8 -10 -3 -9 3 -26 14 -39 12 -14 16 -25 9
-29 -6 -4 1 -12 15 -20 18 -10 22 -16 13 -22 -10 -6 -10 -8 0 -8 7 0 10 -5 7
-10 -4 -6 -1 -9 7 -8 7 2 12 -3 10 -10 -1 -8 2 -11 6 -8 5 3 7 18 4 33 -5 26
-4 27 12 10 10 -9 14 -21 11 -27 -3 -5 3 -10 14 -10 21 0 28 14 12 24 -5 4
-12 25 -16 49 -4 23 -12 48 -18 55 -7 9 -5 11 9 6 18 -5 18 -5 2 9 -10 8 -15
17 -11 20 3 4 2 7 -4 7 -11 0 -33 43 -40 79 -2 14 -7 29 -11 35 -12 21 -12 76
1 73 6 -1 11 4 9 11 -1 9 3 10 15 3 10 -6 30 -12 46 -16 15 -3 27 -12 27 -20
0 -9 -6 -12 -15 -9 -8 4 -15 10 -15 14 0 5 -9 7 -20 5 -11 -2 -20 1 -20 6 0 6
-4 7 -10 4 -5 -3 -10 -17 -10 -31 0 -22 10 -29 34 -25 5 1 6 -5 3 -14 -8 -20
7 -19 24 2 8 9 9 14 3 10 -7 -4 -14 2 -17 13 -6 23 -3 24 25 9 11 -6 32 -13
46 -15 15 -3 33 -12 40 -21 11 -16 13 -16 29 0 15 15 15 17 0 23 -9 3 -17 11
-17 18 0 6 -17 29 -38 52 -67 74 -110 144 -118 193 -4 24 -3 24 8 6 6 -11 14
-22 17 -25 4 -3 14 -17 24 -32 10 -16 27 -28 38 -28 11 0 17 -4 14 -10 -3 -5
-2 -10 4 -10 6 0 8 -6 5 -14 -3 -8 0 -17 7 -22 8 -5 10 -3 5 7 -4 8 1 3 12
-10 14 -17 21 -20 27 -12 4 8 -10 29 -38 57 -25 24 -40 44 -34 44 9 0 9 2 1 8
-21 13 -42 76 -33 100 5 12 11 22 14 22 4 0 3 -4 0 -10 -8 -14 8 -13 22 1 13
13 6 42 -8 33 -5 -3 -9 0 -9 7 0 6 8 9 18 7 12 -3 19 0 19 9 0 8 -6 12 -12 9
-7 -2 -11 8 -11 29 1 26 4 31 14 23 7 -6 11 -17 8 -24z m699 -26 c8 -75 11
-488 3 -520 -6 -23 -3 -28 13 -28 14 0 19 7 20 28 1 15 3 36 5 47 2 11 6 36 8
55 3 19 8 55 12 80 7 46 6 175 -1 213 -3 11 -6 50 -7 86 -2 52 1 66 12 68 17
3 61 -65 80 -121 6 -20 16 -36 21 -36 6 0 7 6 2 13 -4 6 -6 20 -5 30 2 10 -2
25 -8 33 -10 11 -10 14 -1 14 8 0 10 8 5 23 -4 15 10 5 50 -34 54 -55 67 -81
46 -94 -8 -5 -7 -11 1 -21 9 -11 8 -18 -3 -32 -9 -9 -21 -34 -29 -54 -7 -20
-17 -34 -23 -31 -5 4 -7 -1 -3 -10 3 -9 1 -19 -5 -23 -8 -5 -9 9 -5 47 5 48 5
50 -5 19 -5 -19 -8 -53 -5 -75 3 -22 3 -34 0 -27 -10 26 -21 9 -32 -50 -7 -35
-16 -78 -21 -97 -5 -19 -7 -38 -4 -42 3 -5 -2 -21 -10 -37 -8 -16 -13 -32 -10
-35 10 -10 11 -42 2 -53 -5 -7 -8 -16 -7 -20 4 -18 -14 -46 -35 -54 -17 -7
-18 -9 -3 -9 9 -1 17 -6 17 -12 0 -13 -29 -9 -115 16 l-54 16 3 37 c3 20 12
81 21 136 9 54 17 122 19 150 2 28 7 94 11 146 10 120 12 148 14 238 1 84 17
96 26 20z m1015 48 c0 -2 -7 -7 -16 -10 -8 -3 -12 -2 -9 4 6 10 25 14 25 6z
m-245 -21 c11 -2 26 -4 33 -4 10 -1 10 -6 -2 -23 -9 -12 -16 -28 -16 -34 0 -6
-10 -33 -22 -60 -12 -27 -23 -53 -24 -59 -10 -38 -14 -62 -16 -96 -2 -34 -5
-38 -22 -34 -12 3 -7 -2 10 -10 17 -8 34 -22 38 -31 6 -17 5 -17 -13 0 -11 10
-25 15 -30 11 -20 -12 -11 -24 22 -33 43 -11 47 -42 10 -76 -15 -14 -35 -26
-43 -26 -9 0 -25 -7 -36 -16 -10 -8 -13 -13 -7 -9 7 3 21 1 30 -4 10 -6 12
-11 6 -11 -7 0 -13 -9 -13 -19 0 -10 -13 -33 -30 -51 -16 -18 -28 -36 -25 -41
3 -4 -3 -14 -14 -20 -10 -7 -17 -19 -14 -26 4 -9 0 -11 -13 -7 -11 4 -16 4
-12 0 9 -11 -40 -59 -52 -51 -6 3 -10 1 -10 -4 0 -6 -7 -11 -15 -11 -8 0 -14
-3 -13 -7 3 -9 -5 -13 -27 -13 -8 0 -15 5 -15 11 0 5 5 7 10 4 6 -3 10 1 10 9
0 9 4 16 9 16 6 0 8 9 6 20 -2 11 2 20 8 20 7 0 6 4 -3 10 -13 8 -12 10 3 10
10 0 15 5 12 10 -3 6 -1 10 5 10 7 0 10 7 6 15 -3 8 -1 15 4 15 6 0 9 3 8 8
-1 4 3 17 10 30 7 12 11 22 8 22 -3 0 3 19 13 43 26 60 34 80 37 95 1 8 6 21
10 30 4 9 8 22 9 27 7 29 39 121 45 130 12 17 39 107 51 170 13 72 16 78 38
69 9 -3 25 -8 36 -9z m-219 -32 c-8 -15 -29 -44 -45 -63 -25 -29 -29 -31 -24
-12 3 12 9 22 14 22 5 0 9 5 9 11 0 13 51 81 57 75 3 -2 -2 -17 -11 -33z
m-326 -13 c13 -11 20 -23 17 -27 -4 -3 -16 4 -27 17 -31 36 -26 41 10 10z
m-1013 -286 c-3 -3 -12 -4 -19 -1 -8 3 -5 6 6 6 11 1 17 -2 13 -5z m1099 -19
c-3 -9 -11 -13 -16 -10 -8 5 -7 11 1 21 14 18 24 11 15 -11z m-1066 -4 c0 -6
-10 -8 -21 -6 -33 6 -36 15 -6 15 15 0 27 -4 27 -9z m438 -123 c-6 -18 -28
-21 -28 -4 0 9 7 16 16 16 9 0 14 -5 12 -12z m17 -37 c9 -16 -9 -20 -23 -5
-10 12 -10 14 2 14 8 0 17 -4 21 -9z m-315 -321 c0 -5 -8 -10 -17 -10 -15 0
-16 2 -3 10 19 12 20 12 20 0z m1784 -261 c-3 -5 -10 -7 -15 -3 -5 3 -7 10 -3
15 3 5 10 7 15 3 5 -3 7 -10 3 -15z m-1064 -315 c0 -2 -9 -4 -21 -4 -11 0 -18
4 -14 10 5 8 35 3 35 -6z m210 -59 c10 -12 10 -15 -4 -15 -9 0 -16 7 -16 15 0
8 2 15 4 15 2 0 9 -7 16 -15z m-369 -21 c10 -13 10 -17 -1 -24 -8 -5 -17 -7
-21 -4 -4 2 -13 -4 -20 -13 -12 -14 -11 -15 11 -9 24 7 24 6 5 -9 -17 -13 -20
-14 -28 0 -4 8 -16 15 -25 16 -14 0 -13 2 3 9 11 5 16 9 10 10 -10 0 35 39 46
40 4 0 12 -7 20 -16z m372 -15 c-6 -6 -9 -18 -6 -25 3 -8 1 -14 -4 -14 -5 0
-10 11 -11 25 -1 18 3 25 15 25 13 0 14 -3 6 -11z m-183 -199 c0 -10 -26 -20
-51 -20 -22 0 -24 6 -7 24 12 13 58 10 58 -4z"/>
<path d="M2642 1636 c7 -8 15 -12 17 -11 5 6 -10 25 -20 25 -5 0 -4 -6 3 -14z"/>
<path d="M2664 1585 c15 -14 30 -25 33 -25 4 0 -4 11 -17 25 -13 14 -28 25
-33 25 -6 0 2 -11 17 -25z"/>
<path d="M2700 1424 c0 -2 9 -8 20 -14 11 -6 20 -7 20 -2 0 6 -9 12 -20 15
-11 3 -20 3 -20 1z"/>
<path d="M2745 1380 c3 -5 8 -10 11 -10 2 0 4 5 4 10 0 6 -5 10 -11 10 -5 0
-7 -4 -4 -10z"/>
<path d="M2790 1325 c13 -14 25 -25 27 -25 2 0 -4 11 -13 25 -9 14 -21 25 -27
25 -6 0 0 -11 13 -25z"/>
<path d="M2605 1279 c-17 -6 -11 -11 11 -8 9 1 24 -23 24 -38 0 -7 -4 -13 -10
-13 -5 0 -10 7 -10 15 0 8 -8 15 -17 15 -15 0 -16 -2 -3 -10 13 -9 13 -10 0
-11 -9 0 -7 -4 8 -11 12 -6 22 -15 22 -19 0 -5 6 -6 14 -3 8 3 12 13 9 23 -3
11 2 21 12 25 20 7 10 26 -15 26 -10 0 -20 4 -22 9 -1 4 -12 5 -23 0z m62 -25
c-3 -3 -12 -4 -19 -1 -8 3 -5 6 6 6 11 1 17 -2 13 -5z"/>
<path d="M2598 963 c6 -2 18 -2 25 0 6 3 1 5 -13 5 -14 0 -19 -2 -12 -5z"/>
<path d="M2545 950 c-19 -8 -19 -9 2 -9 12 -1 25 4 28 9 7 12 -2 12 -30 0z"/>
<path d="M2664 935 c-18 -13 -18 -14 4 -8 12 3 25 9 28 14 8 14 -10 11 -32 -6z"/>
<path d="M3544 1565 c-3 -8 -4 -20 -2 -27 3 -7 7 -1 10 15 6 29 1 36 -8 12z"/>
<path d="M3510 1524 c0 -8 5 -12 10 -9 6 3 10 10 10 16 0 5 -4 9 -10 9 -5 0
-10 -7 -10 -16z"/>
<path d="M3993 1423 c-21 -8 -15 -20 12 -25 19 -4 25 -1 25 13 0 19 -12 23
-37 12z"/>
<path d="M4060 1352 c0 -5 7 -9 15 -9 8 0 12 4 9 9 -3 4 -9 8 -15 8 -5 0 -9
-4 -9 -8z"/>
<path d="M3955 1329 c-11 -16 -1 -19 13 -3 7 8 8 14 3 14 -5 0 -13 -5 -16 -11z"/>
<path d="M4042 1306 c7 -8 16 -12 21 -9 11 7 -2 23 -19 23 -12 0 -12 -2 -2
-14z"/>
<path d="M3990 1300 c8 -5 24 -10 34 -10 26 0 18 6 -19 14 -22 5 -26 4 -15 -4z"/>
<path d="M3240 250 c-13 -9 -13 -10 0 -10 8 0 22 5 30 10 13 9 13 10 0 10 -8
0 -22 -5 -30 -10z"/>
<path d="M3587 3249 c7 -7 15 -10 18 -7 3 3 -2 9 -12 12 -14 6 -15 5 -6 -5z"/>
<path d="M636 3243 c-8 -8 -8 -76 0 -125 6 -35 8 -36 54 -40 47 -3 49 -2 53
26 2 15 3 49 3 74 -1 49 3 45 -77 65 -14 4 -29 4 -33 0z"/>
<path d="M3428 3233 c7 -3 16 -2 19 1 4 3 -2 6 -13 5 -11 0 -14 -3 -6 -6z"/>
<path d="M3585 3219 c-4 -6 -5 -12 -2 -15 2 -3 7 2 10 11 7 17 1 20 -8 4z"/>
<path d="M3501 3198 c-8 -13 -16 -34 -17 -47 l-3 -24 20 21 c12 13 26 19 37
15 14 -5 15 -3 5 8 -7 7 -13 21 -13 31 0 25 -12 23 -29 -4z"/>
<path d="M810 3140 l0 -70 39 0 38 0 2 60 c1 56 0 61 -24 70 -51 20 -55 15
-55 -60z"/>
<path d="M3603 3184 c0 -16 6 -17 25 -5 11 6 9 9 -5 13 -12 3 -20 0 -20 -8z"/>
<path d="M970 3160 c0 -5 4 -10 9 -10 6 0 13 5 16 10 3 6 -1 10 -9 10 -9 0
-16 -4 -16 -10z"/>
<path d="M1105 3123 c8 -34 25 -54 25 -30 0 9 5 17 10 17 6 0 10 9 10 20 0 15
-7 20 -26 20 -24 0 -25 -3 -19 -27z"/>
<path d="M3910 3079 c0 -5 5 -7 10 -4 6 3 10 8 10 11 0 2 -4 4 -10 4 -5 0 -10
-5 -10 -11z"/>
<path d="M0 2930 l0 -121 163 7 c89 4 163 8 165 9 2 2 4 45 5 96 l2 93 -80 13
c-105 18 -111 16 -107 -30 2 -20 -1 -37 -7 -37 -5 0 -12 -15 -14 -32 -2 -18
-5 -1 -5 38 l-2 72 -31 6 c-17 3 -44 6 -60 6 l-29 0 0 -120z"/>
<path d="M380 2927 c0 -53 4 -98 9 -101 5 -3 36 -3 70 0 l61 7 0 82 0 82 -37
6 c-21 4 -53 9 -70 13 l-33 7 0 -96z"/>
<path d="M3860 2999 c0 -5 5 -7 10 -4 6 3 10 8 10 11 0 2 -4 4 -10 4 -5 0 -10
-5 -10 -11z"/>
<path d="M580 2943 c0 -28 3 -65 6 -82 6 -27 11 -31 40 -31 32 0 33 2 40 48 4
26 13 57 21 69 17 26 11 30 -55 39 l-52 7 0 -50z"/>
<path d="M762 2960 c2 -6 7 -11 11 -11 4 1 21 1 39 1 40 0 34 5 -16 14 -27 5
-37 4 -34 -4z"/>
<path d="M3865 2960 c-3 -5 -1 -10 4 -10 6 0 11 5 11 10 0 6 -2 10 -4 10 -3 0
-8 -4 -11 -10z"/>
<path d="M920 2929 c0 -15 5 -31 12 -35 8 -5 9 -2 4 11 -6 16 -4 16 11 4 9 -8
14 -9 10 -3 -4 7 0 14 8 18 25 9 17 23 -15 28 -27 4 -30 2 -30 -23z"/>
<path d="M3853 2925 c-18 -20 -16 -38 3 -31 9 3 20 6 25 6 5 0 9 5 9 11 0 5
-4 7 -10 4 -6 -3 -7 1 -4 9 8 20 -7 20 -23 1z"/>
<path d="M3921 2814 c0 -11 3 -14 6 -6 3 7 2 16 -1 19 -3 4 -6 -2 -5 -13z"/>
<path d="M4076 2813 c4 -10 12 -54 19 -98 l12 -80 17 58 c21 69 10 116 -28
118 -20 0 -21 1 -1 9 19 8 19 9 -4 9 -18 1 -22 -3 -15 -16z"/>
<path d="M4030 2741 c-12 -24 -13 -54 -1 -66 16 -18 22 -63 8 -68 -8 -3 -9 -8
-1 -16 7 -8 16 -5 33 13 21 22 22 28 11 60 -6 20 -15 36 -18 36 -4 0 -13 4
-21 9 -10 7 -11 13 -2 30 7 11 9 21 7 21 -3 0 -10 -9 -16 -19z"/>
<path d="M0 2630 l0 -123 38 7 c20 3 63 9 95 13 l57 6 0 103 0 104 -79 0 c-44
0 -86 3 -95 6 -14 5 -16 -9 -16 -116z"/>
<path d="M240 2636 l0 -99 53 7 c28 3 64 6 80 6 l27 0 0 95 0 95 -80 -2 -80
-3 0 -99z"/>
<path d="M460 2649 l0 -84 25 50 c13 28 25 58 25 68 0 15 7 18 32 15 19 -2 33
2 35 10 3 8 -6 12 -25 12 -16 0 -44 3 -61 6 l-31 7 0 -84z"/>
<path d="M4076 2585 c-3 -9 -6 -22 -5 -28 0 -7 5 -1 10 12 5 13 8 26 5 28 -2
2 -6 -3 -10 -12z"/>
<path d="M3931 2487 c-1 -38 3 -66 7 -63 12 7 14 80 3 108 -8 18 -10 7 -10
-45z"/>
<path d="M4030 2516 c0 -8 4 -17 9 -20 5 -4 7 3 4 14 -6 23 -13 26 -13 6z"/>
<path d="M392 2373 c1 -49 3 -68 5 -44 3 24 11 50 19 58 8 8 14 23 14 34 0 11
5 17 10 14 6 -3 10 1 10 9 0 11 -9 16 -30 16 l-30 0 2 -87z"/>
<path d="M198 2442 l-38 -3 0 -101 c0 -99 0 -100 23 -95 12 3 50 11 85 18 l62
12 0 89 0 89 -47 -3 c-27 -2 -65 -4 -85 -6z"/>
<path d="M0 2325 c0 -63 3 -115 8 -115 4 1 32 7 62 14 62 14 57 -1 52 150 l-2
64 -60 1 -60 1 0 -115z"/>
<path d="M3931 2384 c0 -11 3 -14 6 -6 3 7 2 16 -1 19 -3 4 -6 -2 -5 -13z"/>
<path d="M3777 2312 c-21 -24 -24 -50 -3 -33 12 10 29 51 22 51 -2 0 -10 -8
-19 -18z"/>
<path d="M3740 2191 c0 -7 -4 -9 -10 -6 -6 4 -7 -1 -3 -11 6 -15 7 -15 15 1 6
9 7 19 4 22 -3 4 -6 1 -6 -6z"/>
<path d="M254 2155 c-6 -15 1 -164 7 -169 2 -1 22 3 44 10 22 7 32 13 22 13
-15 1 -15 4 -5 22 9 15 10 23 2 26 -6 2 -9 14 -7 27 3 13 -2 30 -12 39 -9 10
-12 17 -7 17 5 0 9 7 9 15 0 20 -46 20 -53 0z"/>
<path d="M24 2133 c-15 -3 -21 -11 -21 -33 0 -17 4 -30 9 -30 4 0 8 -9 8 -21
0 -13 -4 -18 -12 -13 -6 4 -3 -4 8 -18 19 -26 19 -26 28 -4 12 28 18 114 8
119 -4 1 -16 1 -28 0z"/>
<path d="M108 2133 c7 -3 16 -2 19 1 4 3 -2 6 -13 5 -11 0 -14 -3 -6 -6z"/>
<path d="M82 2089 c-18 -28 -16 -63 4 -55 9 3 18 6 20 6 8 0 4 59 -4 64 -4 2
-13 -4 -20 -15z"/>
<path d="M3025 2010 c-3 -5 0 -21 6 -36 8 -23 12 -25 19 -14 6 8 10 23 10 32
0 12 6 16 24 12 14 -2 27 0 30 5 4 5 -14 9 -39 9 -25 0 -47 -3 -50 -8z"/>
<path d="M4231 1957 c0 -64 9 -58 23 14 5 28 3 38 -9 43 -12 4 -15 -5 -14 -57z"/>
<path d="M907 1965 c-29 -26 -57 -33 -57 -15 0 6 -11 10 -25 10 -14 0 -25 -5
-25 -11 0 -8 -5 -8 -15 1 -13 11 -15 6 -15 -33 l0 -46 32 10 c60 17 168 61
174 70 7 12 -14 39 -30 39 -6 0 -24 -12 -39 -25z"/>
<path d="M2742 1957 c-24 -14 -20 -27 9 -27 12 0 16 5 13 14 -3 8 2 16 13 19
12 3 13 5 3 5 -8 1 -25 -4 -38 -11z"/>
<path d="M3035 1930 c4 -6 11 -8 16 -5 14 9 11 15 -7 15 -8 0 -12 -5 -9 -10z"/>
<path d="M38 1843 l-38 -4 0 -109 0 -108 57 18 c31 10 59 23 61 29 3 8 -3 8
-23 -1 -21 -10 -28 -9 -35 2 -4 7 -15 10 -24 7 -8 -3 -18 -2 -21 3 -4 6 3 10
14 10 12 0 21 3 20 8 -1 4 3 18 7 32 8 24 9 24 14 -9 3 -19 11 -36 18 -39 10
-3 12 4 7 32 -6 29 -4 36 9 36 10 0 16 8 16 21 0 18 -2 19 -15 9 -12 -10 -15
-10 -15 1 0 8 -6 5 -15 -7 -15 -19 -15 -19 -30 0 -15 19 -22 46 -8 33 3 -4 11
0 17 9 12 15 46 10 46 -7 0 -5 4 -9 9 -9 5 0 9 11 9 25 0 27 1 26 -80 18z"/>
<path d="M910 1825 c-30 -8 -99 -34 -153 -58 l-98 -45 -4 -61 c-1 -33 0 -61 4
-61 25 1 227 73 247 89 14 11 37 22 52 26 50 11 61 26 55 78 -6 54 -10 55
-103 32z"/>
<path d="M4562 1790 c-56 -33 -127 -114 -168 -192 -13 -26 -24 -51 -24 -55 1
-4 8 6 17 22 42 79 148 195 213 234 55 33 21 24 -38 -9z"/>
<path d="M4570 1720 c-14 -11 -20 -20 -14 -20 6 0 19 9 29 20 23 25 17 25 -15
0z"/>
<path d="M4609 1703 c-13 -16 -12 -17 4 -4 16 13 21 21 13 21 -2 0 -10 -8 -17
-17z"/>
<path d="M915 1601 c-67 -24 -132 -58 -142 -73 -4 -7 -8 -39 -8 -71 l-1 -58
35 6 c44 8 135 56 181 93 29 25 35 36 35 71 0 57 -17 62 -100 32z"/>
<path d="M3190 1559 c0 -5 5 -7 10 -4 6 3 10 8 10 11 0 2 -4 4 -10 4 -5 0 -10
-5 -10 -11z"/>
<path d="M11 1451 c1 -70 4 -79 20 -78 10 1 16 3 14 6 -3 2 4 18 15 36 l20 32
-23 42 c-35 65 -48 54 -46 -38z"/>
<path d="M664 1475 c-11 -8 -14 -15 -6 -15 20 0 14 -38 -8 -45 -11 -4 -18 -11
-15 -16 4 -5 1 -9 -4 -9 -6 0 -11 -7 -11 -16 0 -14 -3 -14 -15 -4 -13 11 -15
8 -15 -19 0 -28 2 -30 25 -21 80 30 85 36 85 100 0 63 -4 69 -36 45z"/>
<path d="M613 1460 c-16 -6 -23 -18 -23 -35 0 -28 14 -32 36 -11 10 11 11 15
1 19 -9 3 -9 8 2 20 15 19 15 19 -16 7z"/>
<path d="M60 1380 c0 -15 -7 -20 -25 -20 -18 0 -25 -5 -25 -20 0 -19 1 -19 42
0 40 18 71 51 35 37 -11 -4 -14 -2 -10 9 3 7 0 14 -6 14 -6 0 -11 -9 -11 -20z"/>
<path d="M413 1383 c-9 -3 -13 -23 -12 -56 1 -29 4 -42 6 -31 2 12 14 24 25
27 18 5 19 8 8 21 -10 13 -10 16 5 16 14 0 15 3 5 15 -13 16 -17 17 -37 8z"/>
<path d="M960 1380 c-8 -5 -30 -10 -47 -10 -25 0 -46 -12 -88 -50 -31 -28 -60
-48 -65 -45 -5 3 -30 -7 -57 -23 l-48 -28 -3 -62 c-2 -34 0 -62 3 -62 3 0 36
16 73 36 47 25 75 34 94 30 22 -4 35 2 65 30 21 20 59 54 86 76 41 35 47 45
47 79 0 34 -3 39 -22 39 -13 0 -30 -5 -38 -10z"/>
<path d="M297 1303 c-4 -3 -7 -11 -7 -17 0 -6 5 -5 12 2 6 6 9 14 7 17 -3 3
-9 2 -12 -2z"/>
<path d="M193 1293 c-9 -3 -13 -26 -13 -65 0 -72 10 -73 13 -2 1 27 6 55 10
62 9 13 8 13 -10 5z"/>
<path d="M58 1248 l-58 -21 0 -108 0 -109 63 31 c34 17 64 35 67 39 7 12 0
190 -8 189 -4 0 -33 -10 -64 -21z"/>
<path d="M4665 1245 c-16 -14 -34 -25 -38 -25 -10 0 -127 -115 -127 -124 0 -3
5 -6 11 -6 5 0 8 4 4 9 -3 5 3 12 13 15 10 4 45 32 78 64 32 32 70 65 84 74
14 9 21 17 15 17 -5 0 -23 -11 -40 -24z"/>
<path d="M320 1200 c-9 -6 -10 -10 -3 -10 6 0 15 5 18 10 8 12 4 12 -15 0z"/>
<path d="M4165 1180 c3 -5 8 -10 11 -10 2 0 4 5 4 10 0 6 -5 10 -11 10 -5 0
-7 -4 -4 -10z"/>
<path d="M264 1165 c-10 -8 -14 -15 -8 -15 5 0 19 7 30 15 10 8 14 15 8 15 -5
0 -19 -7 -30 -15z"/>
<path d="M935 1154 c-46 -18 -51 -18 -85 -8 -14 4 -22 3 -18 -1 21 -23 -57
-99 -160 -155 -40 -21 -47 -30 -47 -55 0 -17 -8 -48 -18 -69 -9 -22 -15 -41
-13 -43 6 -6 63 24 111 58 25 18 55 30 80 32 39 2 40 1 37 -28 -5 -39 -13 -48
-92 -99 l-67 -44 -7 -57 c-3 -31 -4 -60 -1 -66 3 -5 29 7 57 26 52 37 94 52
106 41 3 -4 0 -11 -8 -16 -8 -6 -12 -10 -7 -10 4 0 -1 -17 -12 -39 -21 -41
-51 -69 -143 -132 l-58 -40 0 -62 c0 -51 -4 -64 -20 -74 -23 -15 -26 -11 -35
44 l-7 42 -26 -18 c-15 -10 -46 -30 -69 -45 -42 -26 -43 -27 -43 -81 0 -42 -4
-55 -15 -55 -10 0 -17 14 -21 40 -4 22 -8 40 -11 40 -5 0 -133 -88 -155 -107
-9 -8 -18 -27 -20 -41 -3 -24 -4 -25 -18 -11 -13 15 -21 12 -82 -29 -52 -34
-68 -51 -68 -68 0 -24 1 -24 118 -24 l118 0 89 78 c48 42 119 107 157 144 39
36 75 69 81 71 7 2 50 35 96 72 77 62 86 66 107 54 13 -7 24 -19 24 -26 0 -14
-178 -193 -192 -193 -10 0 -121 -84 -135 -102 -8 -11 -10 -33 -4 -85 1 -8 17
-13 45 -13 42 0 48 4 92 55 26 30 51 55 56 55 4 0 36 28 70 62 35 34 87 81
116 104 56 45 114 125 110 151 -2 9 3 18 10 20 6 3 12 -3 12 -12 0 -9 5 -13
10 -10 16 10 12 75 -5 75 -7 0 -18 -6 -22 -14 -4 -8 -20 -17 -34 -21 -22 -5
-27 -2 -32 16 -8 28 8 58 36 68 28 11 77 100 82 146 l3 35 -40 -2 c-32 -2 -43
2 -55 19 -17 25 -13 30 75 104 35 30 43 43 46 78 4 45 -1 48 -44 26 -17 -9
-30 -13 -30 -11 0 3 -11 1 -25 -4 -15 -6 -26 -6 -30 0 -10 16 5 50 22 50 9 0
13 3 9 7 -3 4 11 25 33 47 29 30 42 53 47 84 6 40 5 42 -17 42 -13 -1 -42 -8
-64 -16z"/>
<path d="M571 1127 c-1 -16 -8 -30 -18 -34 -25 -9 -34 -26 -20 -36 7 -4 -1 -5
-18 -1 -16 4 -33 12 -37 18 -4 6 -8 -10 -8 -36 l0 -47 38 20 c80 43 87 52 75
100 -8 35 -11 38 -12 16z"/>
<path d="M330 1070 c-9 -6 -10 -10 -3 -10 6 0 15 5 18 10 8 12 4 12 -15 0z"/>
<path d="M265 1041 c-10 -17 -18 -171 -9 -171 14 1 60 40 47 40 -7 0 -12 12
-12 28 0 15 -1 43 -4 62 -3 26 0 37 12 42 13 5 11 7 -6 7 -12 1 -24 -3 -28 -8z"/>
<path d="M4540 1030 c0 -5 5 -10 10 -10 6 0 10 5 10 10 0 6 -4 10 -10 10 -5 0
-10 -4 -10 -10z"/>
<path d="M150 991 c-25 -10 -66 -28 -92 -40 l-48 -21 0 -105 c0 -58 3 -105 8
-104 4 0 47 26 96 57 l88 57 2 88 c2 48 0 87 -3 87 -3 -1 -26 -9 -51 -19z"/>
<path d="M315 949 c-11 -16 -1 -19 13 -3 7 8 8 14 3 14 -5 0 -13 -5 -16 -11z"/>
<path d="M509 892 c-14 -6 -14 -9 -4 -19 10 -9 14 -8 18 8 3 10 4 19 4 18 -1
0 -9 -3 -18 -7z"/>
<path d="M408 839 c-10 -6 -18 -17 -18 -24 0 -8 8 -15 18 -15 14 0 15 -2 2
-10 -8 -5 -11 -12 -7 -16 13 -14 29 13 25 44 -3 26 -6 29 -20 21z"/>
<path d="M250 766 l-75 -41 -3 -92 c-2 -53 1 -93 7 -93 5 0 44 24 87 53 l79
54 0 81 c0 49 -4 81 -10 81 -5 -1 -44 -20 -85 -43z"/>
<path d="M500 770 c0 -5 7 -7 15 -4 8 4 15 8 15 10 0 2 -7 4 -15 4 -8 0 -15
-4 -15 -10z"/>
<path d="M403 735 c1 -11 -2 -26 -6 -32 -11 -17 5 -16 29 2 16 12 17 14 2 15
-9 0 -19 8 -22 18 -4 13 -4 13 -3 -3z"/>
<path d="M62 662 l-62 -33 0 -110 c0 -60 2 -109 5 -109 2 0 34 21 70 46 l66
46 -7 97 c-4 53 -7 96 -8 97 0 0 -29 -15 -64 -34z"/>
<path d="M559 662 c-13 -16 -12 -16 4 -2 17 13 19 12 15 -10 -2 -19 -8 -24
-25 -22 -13 2 -23 -2 -23 -7 0 -6 8 -11 18 -12 9 0 12 -3 5 -5 -7 -3 -9 -12
-6 -21 5 -12 1 -14 -15 -8 -13 4 -22 2 -22 -4 0 -6 5 -11 10 -11 6 0 10 -5 10
-11 0 -7 -10 -5 -25 5 -28 19 -35 20 -35 6 0 -5 6 -10 14 -10 17 0 31 -18 22
-27 -3 -3 -12 0 -21 7 -9 7 -15 8 -15 2 0 -6 6 -13 13 -15 10 -4 10 -6 0 -6
-7 -1 -13 -8 -13 -16 0 -9 19 -1 60 26 l60 40 0 54 c0 59 -10 74 -31 47z"/>
<path d="M510 600 c0 -5 5 -10 10 -10 6 0 10 5 10 10 0 6 -4 10 -10 10 -5 0
-10 -4 -10 -10z"/>
<path d="M1306 538 c-3 -13 -6 -51 -6 -84 0 -40 -7 -77 -20 -105 -14 -31 -20
-66 -20 -120 0 -66 -4 -85 -30 -134 -46 -88 -43 -95 36 -95 l67 0 -7 71 c-5
59 -3 78 14 116 15 33 20 67 20 125 0 44 4 88 10 98 5 10 13 44 16 75 8 63 0
75 -47 75 -19 0 -28 -6 -33 -22z"/>
<path d="M1496 534 c-12 -11 -16 -35 -16 -88 0 -43 -6 -89 -15 -109 -9 -22
-15 -68 -15 -114 -1 -49 -6 -87 -15 -103 -8 -14 -14 -46 -15 -72 l0 -48 39 0
c36 0 40 3 51 35 6 19 9 53 5 78 -4 27 -1 66 10 107 10 40 14 80 10 106 -4 30
0 56 15 94 14 36 19 63 14 84 -10 47 -39 60 -68 30z"/>
<path d="M295 516 l-40 -23 -3 -91 c-1 -51 0 -92 3 -92 4 0 33 23 65 51 52 45
57 53 45 66 -9 9 -15 34 -15 64 0 27 -3 49 -7 49 -5 -1 -26 -11 -48 -24z"/>
<path d="M403 485 c0 -33 2 -45 4 -27 2 18 2 45 0 60 -2 15 -4 0 -4 -33z"/>
<path d="M2042 512 c-18 -12 -32 -68 -32 -132 -1 -77 -15 -130 -50 -187 -16
-26 -32 -68 -35 -93 -3 -25 -8 -57 -11 -73 l-6 -27 59 0 c62 0 90 11 78 29 -4
7 -2 18 5 26 6 7 13 35 16 62 8 93 14 118 34 158 23 46 27 95 6 95 -17 0 -26
61 -15 108 4 17 3 32 -1 32 -5 0 -14 2 -22 5 -7 3 -19 1 -26 -3z"/>
<path d="M1990 458 c0 -19 2 -20 10 -8 13 19 13 30 0 30 -5 0 -10 -10 -10 -22z"/>
<path d="M103 403 l-93 -56 -2 -81 c0 -44 -2 -94 -3 -109 -3 -39 9 -42 47 -9
18 16 61 50 96 76 l62 47 0 95 c0 52 -3 94 -7 93 -5 0 -50 -25 -100 -56z"/>
<path d="M3395 280 c-3 -5 -1 -10 4 -10 6 0 11 5 11 10 0 6 -2 10 -4 10 -3 0
-8 -4 -11 -10z"/>
<path d="M893 200 c-28 -16 -79 -55 -112 -87 -34 -32 -76 -70 -94 -85 l-32
-27 71 -1 c71 0 72 0 105 39 63 74 79 99 79 124 0 14 5 29 11 33 8 4 9 0 4
-15 -4 -12 -2 -21 4 -21 6 0 12 6 12 13 1 6 3 22 4 35 1 12 2 22 1 22 0 0 -24
-14 -53 -30z"/>
<path d="M3340 210 c0 -5 5 -10 11 -10 5 0 7 5 4 10 -3 6 -8 10 -11 10 -2 0
-4 -4 -4 -10z"/>
<path d="M3881 211 c-11 -7 -11 -9 0 -14 9 -3 7 -6 -6 -7 -19 -1 -19 -1 -2
-11 22 -13 30 -7 25 20 -2 14 -7 18 -17 12z"/>
<path d="M3410 205 c0 -7 30 -13 34 -7 3 4 -4 9 -15 9 -10 1 -19 0 -19 -2z"/>
<path d="M3280 161 c0 -6 4 -12 8 -15 5 -3 9 1 9 9 0 8 -4 15 -9 15 -4 0 -8
-4 -8 -9z"/>
<path d="M3425 150 c3 -5 8 -10 11 -10 2 0 4 5 4 10 0 6 -5 10 -11 10 -5 0 -7
-4 -4 -10z"/>
<path d="M365 35 l-40 -35 60 1 60 2 1 33 c1 28 -3 34 -20 34 -12 -1 -39 -16
-61 -35z"/>
<path d="M970 48 c-24 -26 -21 -42 8 -46 23 -4 24 -2 27 41 2 33 -7 34 -35 5z"/>
<path d="M3352 20 c0 -14 2 -19 5 -12 2 6 2 18 0 25 -3 6 -5 1 -5 -13z"/>
<path d="M3600 10 c0 -5 5 -10 10 -10 6 0 10 5 10 10 0 6 -4 10 -10 10 -5 0
-10 -4 -10 -10z"/>
</g>
</svg>
