<?xml version="1.0" standalone="no"?>
<!DOCTYPE svg PUBLIC "-//W3C//DTD SVG 20010904//EN"
 "http://www.w3.org/TR/2001/REC-SVG-20010904/DTD/svg10.dtd">
<svg version="1.0" xmlns="http://www.w3.org/2000/svg"
 width="612.000000pt" height="408.000000pt" viewBox="0 0 612.000000 408.000000"
 preserveAspectRatio="xMidYMid meet">

<g transform="translate(0.000000,408.000000) scale(0.100000,-0.100000)"
fill="#000000" stroke="none">
<path d="M0 3555 l0 -524 45 44 c24 25 51 45 60 45 19 0 52 33 57 56 2 11 11
20 22 22 18 4 28 11 80 58 15 13 33 24 41 24 8 0 15 7 15 15 0 20 47 65 69 65
25 0 91 66 91 91 0 22 45 69 65 69 8 0 15 7 15 15 0 20 47 65 69 65 10 0 55
36 100 80 47 46 89 80 101 80 11 0 20 4 20 10 0 5 13 16 30 25 16 8 37 29 45
45 17 32 35 40 35 15 0 -8 2 -15 5 -15 2 0 36 33 75 72 55 56 73 69 80 58 7
-11 11 -11 24 -1 8 7 18 21 21 31 3 10 21 28 40 39 19 11 35 25 35 31 0 7
-200 10 -620 10 l-620 0 0 -525z"/>
<path d="M5900 4041 c0 -22 5 -43 10 -46 6 -4 10 12 10 39 0 25 -4 46 -10 46
-5 0 -10 -18 -10 -39z"/>
<path d="M5950 4040 c0 -29 4 -40 15 -40 12 0 15 -16 15 -80 0 -79 0 -80 25
-80 l25 0 0 -160 c0 -136 2 -160 15 -160 11 0 15 -11 15 -40 0 -22 5 -40 10
-40 6 0 10 -18 10 -40 0 -33 3 -40 20 -40 20 0 20 7 20 360 l0 360 -85 0 -85
0 0 -40z"/>
<path d="M3005 3106 c-212 -30 -469 -138 -590 -249 -36 -32 -65 -63 -65 -69 0
-6 18 -8 45 -5 44 6 62 -7 30 -19 -10 -4 -13 -13 -9 -26 3 -11 -2 -40 -11 -64
-9 -25 -14 -51 -11 -59 4 -11 -2 -15 -25 -15 -48 0 -99 -26 -99 -50 0 -11 -6
-23 -14 -26 -8 -3 -12 -12 -9 -20 3 -8 1 -14 -4 -14 -5 0 -9 -15 -9 -34 1 -38
7 -36 53 11 23 23 72 30 110 16 15 -6 13 -8 -12 -13 -22 -4 -31 -11 -33 -29
-3 -20 -1 -23 15 -17 10 4 23 8 28 9 6 1 23 19 38 40 16 20 37 37 47 37 22 0
50 -26 50 -45 0 -7 3 -22 7 -32 3 -10 3 -15 -2 -11 -4 4 -20 1 -35 -7 -39 -20
-140 -32 -140 -16 0 16 -47 3 -83 -22 -24 -16 -52 -22 -132 -27 -5 0 -3 -5 5
-10 11 -7 4 -10 -25 -9 -22 0 -57 -1 -78 -2 -21 0 -48 6 -62 15 -16 10 -26 12
-30 5 -4 -6 -14 -8 -22 -5 -8 3 -20 3 -26 -1 -7 -4 -78 -6 -158 -4 -109 2
-154 -1 -180 -12 -36 -15 -115 -89 -189 -176 -25 -30 -50 -59 -56 -65 -5 -6
-34 -49 -63 -96 -30 -47 -62 -97 -72 -112 -11 -15 -19 -31 -19 -35 0 -4 -11
-18 -24 -30 -33 -32 -76 -30 -107 5 -42 45 -79 100 -79 115 0 12 71 90 231
255 12 12 19 25 16 29 -4 3 -7 4 -7 1 0 -4 -28 2 -62 13 -39 12 -76 16 -96 13
l-33 -6 24 44 24 45 -24 27 c-12 15 -39 34 -60 42 -57 24 -273 54 -438 61
-161 6 -170 9 -265 73 -30 20 -67 44 -82 53 -15 9 -29 29 -33 47 -7 33 -32 51
-85 59 -22 4 -39 14 -46 29 -6 12 -14 25 -18 29 -3 3 -6 -613 -6 -1370 l0
-1377 523 1 522 0 -53 20 c-37 15 -56 28 -63 45 -5 14 -9 161 -9 327 0 189 -5
366 -15 473 -16 186 -16 185 -52 261 -38 81 -41 120 -12 147 48 44 228 147
350 199 158 69 219 96 245 108 27 14 113 17 122 4 4 -5 23 -19 42 -29 19 -10
44 -27 55 -37 56 -52 91 -79 100 -79 6 0 21 -9 33 -21 23 -21 42 -18 42 7 0 8
13 49 30 92 l30 77 42 2 c30 2 48 9 58 24 12 15 23 19 41 14 46 -11 64 -13 74
-4 6 4 30 5 54 2 40 -6 43 -8 39 -34 -3 -15 -1 -26 3 -23 5 2 13 -5 19 -16 6
-11 18 -20 26 -20 9 0 30 -10 47 -22 48 -33 59 -46 47 -53 -6 -4 -5 -12 5 -21
8 -9 15 -21 15 -27 0 -7 -11 0 -23 14 -31 34 -53 41 -69 22 -10 -13 -10 -17 0
-20 20 -7 14 -26 -17 -55 -24 -23 -29 -37 -35 -100 -4 -48 -12 -75 -21 -81
-17 -9 -20 -47 -4 -47 7 0 9 -10 4 -27 -9 -37 -23 -53 -41 -46 -8 3 -14 0 -14
-7 0 -6 5 -8 10 -5 6 3 10 1 10 -4 0 -6 -7 -11 -15 -11 -17 0 -20 -16 -5 -25
6 -3 5 -15 -2 -30 -13 -28 -2 -47 13 -25 9 13 10 13 6 -1 -3 -9 -1 -21 4 -26
17 -17 -12 -62 -48 -75 -18 -7 -33 -18 -33 -25 0 -7 -4 -12 -10 -11 -13 4
-120 -111 -120 -128 0 -8 -7 -14 -16 -14 -10 0 -14 -6 -11 -14 3 -9 -4 -21
-19 -30 -13 -9 -24 -23 -24 -31 0 -7 -17 -23 -37 -35 -21 -12 -60 -49 -88 -81
-54 -65 -248 -258 -305 -303 -50 -41 -200 -183 -200 -190 0 -3 286 -6 635 -6
l636 0 47 76 c26 42 79 124 117 182 66 99 73 107 123 125 34 13 56 17 60 10 4
-5 15 -12 25 -16 13 -5 17 -18 17 -61 l0 -55 61 -43 c127 -89 142 -97 171 -91
24 5 28 2 28 -16 0 -11 -4 -21 -10 -21 -21 0 -9 -19 25 -40 19 -12 35 -28 35
-36 0 -11 28 -14 154 -14 l154 0 6 31 c3 17 6 42 6 55 0 13 6 24 13 24 13 0
113 117 123 145 8 21 -6 19 -22 -2 -12 -17 -13 -17 -19 0 -13 31 2 50 33 42
15 -4 28 -8 30 -10 2 -2 -4 -31 -12 -65 -21 -83 -21 -87 15 -105 24 -13 30
-22 27 -42 -5 -41 -31 -51 -74 -28 -20 11 -39 28 -43 39 -7 17 -9 15 -19 -10
-6 -16 -14 -39 -17 -51 l-6 -23 140 0 141 0 7 28 c9 32 8 248 -2 380 -4 51 -5
98 -2 105 5 15 95 8 206 -14 71 -15 50 -27 -58 -36 -85 -6 -107 -21 -76 -52
12 -12 45 -16 147 -18 109 -3 147 -8 213 -29 44 -14 88 -31 97 -38 11 -8 20
-39 27 -97 7 -46 16 -106 22 -134 5 -27 12 -60 15 -72 4 -23 6 -23 189 -23
l184 0 -13 32 c-8 18 -26 83 -41 143 -14 61 -34 137 -44 170 -28 92 -35 139
-20 129 7 -4 76 -9 154 -10 187 -4 238 -11 272 -37 25 -20 103 -33 103 -17 0
9 119 49 150 51 52 3 70 -2 89 -22 18 -20 23 -20 50 -9 17 7 41 10 54 6 51
-12 98 -158 113 -349 l7 -87 213 0 214 0 0 624 0 624 -46 -24 c-86 -46 -116
-30 -178 94 -14 30 -51 82 -81 115 -30 34 -55 65 -55 69 0 4 -12 19 -26 34
l-27 26 6 -34 c4 -18 19 -77 34 -132 24 -88 26 -100 12 -124 -19 -34 -41 -46
-71 -39 -25 7 -26 9 -31 114 -2 60 -10 150 -17 201 -7 51 -10 96 -6 99 3 4 17
0 31 -7 24 -13 27 -12 55 22 28 34 30 35 77 27 65 -10 125 -33 170 -64 21 -14
55 -30 75 -36 43 -11 66 -42 48 -65 -7 -7 -30 -19 -51 -24 -22 -6 -39 -17 -39
-24 0 -7 27 -42 60 -77 l59 -64 1 696 0 696 -32 -6 c-26 -5 -34 -12 -36 -33
-4 -32 -14 -36 -162 -62 -104 -19 -192 -43 -331 -90 -77 -26 -134 -39 -210
-45 -144 -13 -213 -28 -287 -63 -59 -28 -84 -34 -242 -58 -36 -5 -111 -16
-168 -25 -57 -9 -107 -13 -112 -10 -5 3 -22 8 -37 10 -41 5 -120 41 -130 59
-5 9 -33 34 -62 56 -59 44 -58 46 12 25 26 -8 47 -11 47 -7 0 13 -83 82 -99
82 -9 0 -46 36 -81 80 -36 44 -71 77 -77 75 -7 -2 -12 1 -10 7 1 6 -29 37 -68
69 -215 179 -422 273 -688 313 -124 18 -215 19 -342 2z m1140 -436 c3 -5 1
-10 -4 -10 -6 0 -11 5 -11 10 0 6 2 10 4 10 3 0 8 -4 11 -10z m-636 -39 c12
-16 21 -32 21 -35 0 -3 13 -25 29 -48 16 -24 46 -89 67 -143 20 -55 40 -104
45 -109 8 -9 28 -16 55 -18 6 -1 16 -10 23 -20 10 -16 8 -18 -25 -18 -19 0
-33 4 -29 9 9 16 -15 23 -32 10 -13 -11 -17 -10 -29 6 -8 10 -17 16 -20 12 -4
-4 -1 -13 5 -21 19 -23 -15 -37 -48 -20 -14 7 -34 12 -46 10 -11 -2 -14 -1 -7
1 7 3 -11 26 -44 56 -50 46 -78 63 -136 83 -11 4 -18 16 -18 32 0 14 -3 23 -6
19 -3 -3 -16 3 -27 14 -12 11 -23 15 -25 9 -7 -19 -24 -10 -19 11 3 13 1 19
-6 16 -7 -2 -10 -13 -9 -23 3 -14 1 -16 -8 -8 -9 9 -9 17 -1 33 14 26 34 27
58 3 28 -29 222 -195 255 -218 37 -28 72 -21 65 12 -2 13 -1 23 2 22 35 -4 38
2 28 47 -7 30 -13 41 -19 33 -6 -10 -8 -10 -8 0 0 7 -5 10 -12 6 -7 -4 -8 -3
-4 5 4 6 12 8 18 5 7 -4 8 2 3 17 -11 36 -35 70 -45 64 -5 -3 -12 0 -15 6 -5
7 -15 3 -31 -12 -23 -21 -24 -21 -30 -3 -4 10 -18 45 -30 76 -27 65 -29 79
-12 96 20 20 46 14 67 -17z m233 12 c31 -36 90 -304 68 -311 -5 -2 -3 -23 5
-48 7 -24 9 -44 4 -44 -5 0 -9 6 -9 13 0 8 -4 7 -10 -3 -8 -12 -10 -10 -11 10
l-1 25 -8 -25 c-8 -22 -9 -21 -7 10 1 21 7 34 14 33 8 -2 10 20 7 79 -6 86
-19 110 -56 103 -12 -3 -18 2 -18 16 0 11 -4 18 -9 15 -5 -3 -11 6 -14 20 -4
23 -2 25 19 21 34 -6 51 7 35 27 -16 19 -42 21 -59 4 -9 -9 -12 -5 -12 20 0
19 7 35 18 41 23 14 27 14 44 -6z m446 -28 c12 -19 19 -35 15 -35 -5 0 -18 16
-31 35 -12 19 -19 35 -15 35 5 0 18 -16 31 -35z m-1533 -93 c0 -44 3 -75 7
-69 9 14 10 0 2 -30 -4 -13 -11 -23 -16 -23 -5 0 -6 6 -3 13 4 6 0 4 -9 -7
-11 -13 -22 -17 -40 -12 -23 6 -25 10 -28 94 -3 79 -1 89 19 109 17 18 27 21
45 14 21 -8 23 -14 23 -89z m233 64 c2 -10 0 -16 -6 -12 -15 9 -62 -88 -62
-127 0 -20 -4 -38 -10 -42 -11 -7 -2 -35 11 -35 4 0 23 14 41 32 18 17 47 42
66 54 30 21 36 22 75 10 69 -22 93 -36 111 -68 l18 -30 -27 18 c-15 10 -37 19
-48 20 -12 1 -33 5 -46 10 -15 4 -22 3 -18 -3 3 -5 -6 -27 -20 -49 -15 -21
-28 -48 -29 -60 -3 -28 -93 -150 -98 -133 -16 60 -32 96 -47 107 -11 7 -19 20
-19 28 0 8 -13 17 -31 21 -65 13 -69 153 -6 222 54 59 137 80 145 37z m1091
-82 c9 -20 9 -38 -1 -78 -11 -51 -12 -52 -30 -34 -10 10 -23 16 -27 13 -5 -2
-12 2 -15 11 -9 23 -7 36 4 29 6 -3 10 -2 10 3 0 5 11 7 25 4 18 -3 25 0 25
12 0 17 -38 38 -52 29 -5 -2 -8 0 -8 6 0 11 29 30 46 31 6 0 16 -12 23 -26z
m-272 -26 c-3 -8 -6 -5 -6 6 -1 11 2 17 5 13 3 -3 4 -12 1 -19z m-137 -72 c0
-3 -4 -8 -10 -11 -5 -3 -10 -1 -10 4 0 6 5 11 10 11 6 0 10 -2 10 -4z m705
-66 c3 -5 -1 -10 -9 -10 -9 0 -16 5 -16 10 0 6 4 10 9 10 6 0 13 -4 16 -10z
m-443 -152 c3 -7 6 -42 7 -78 2 -39 8 -71 17 -81 8 -8 14 -23 14 -32 0 -9 4
-26 9 -39 18 -47 35 -111 34 -129 -1 -15 13 -23 65 -40 53 -16 112 -23 282
-31 118 -5 227 -9 242 -9 35 1 46 -17 15 -24 -13 -4 -27 -5 -33 -4 -5 1 -27 1
-49 0 -38 -1 -39 -1 -18 -16 12 -9 31 -29 43 -45 19 -27 20 -32 6 -51 -14 -21
-15 -20 -66 30 -29 29 -57 50 -64 48 -6 -2 -24 4 -41 13 -24 13 -55 15 -155
13 -131 -2 -155 -5 -166 -16 -4 -4 -12 -3 -18 2 -12 9 -59 16 -202 30 -98 10
-141 26 -191 74 -37 35 -49 79 -34 120 7 17 7 27 1 27 -9 0 -14 -15 -11 -33 1
-5 -3 -6 -9 -2 -7 4 -9 -3 -4 -22 4 -15 3 -24 -2 -20 -4 4 -9 22 -11 40 -1 18
-5 53 -9 79 -5 35 -2 52 10 69 13 20 16 21 16 6 0 -17 1 -17 16 -3 22 23 34
20 34 -8 0 -13 7 -29 15 -36 13 -10 19 -8 37 16 47 60 151 153 177 157 14 2
29 5 32 6 4 0 9 -5 11 -11z m-1329 -372 c19 -14 23 -36 7 -36 -5 0 -10 -7 -10
-15 0 -8 4 -15 9 -15 20 0 18 -30 -3 -59 l-23 -31 -27 21 c-24 19 -26 27 -22
64 5 45 24 85 41 85 5 0 18 -7 28 -14z m-224 -48 c6 11 12 10 26 -5 10 -10 21
-17 24 -15 3 1 7 -6 9 -16 4 -24 -28 -39 -40 -19 -4 8 -20 18 -34 21 -15 4
-33 13 -40 21 -12 12 -12 15 3 24 14 8 21 6 31 -7 10 -13 14 -14 21 -4z m652
-35 c-12 -20 -14 -14 -5 12 4 9 9 14 11 11 3 -2 0 -13 -6 -23z m69 -4 c0 -5
-4 -9 -10 -9 -5 0 -10 7 -10 16 0 8 5 12 10 9 6 -3 10 -10 10 -16z m-1194 -11
c50 -56 71 -126 44 -143 -6 -4 -17 -22 -25 -41 -8 -19 -19 -34 -24 -34 -23 0
-101 65 -102 84 0 12 -6 37 -12 56 -10 29 -10 38 3 53 8 9 22 17 30 17 9 0 25
7 36 15 25 19 27 19 50 -7z m1273 -15 c19 -13 9 -28 -14 -20 -9 4 -15 18 -14
34 0 17 3 22 6 13 4 -8 13 -20 22 -27z m-869 12 c0 -8 -4 -15 -10 -15 -5 0
-10 4 -10 9 0 5 -8 12 -17 14 -11 3 -7 5 10 6 18 1 27 -4 27 -14z m-70 -5 c8
-5 11 -12 8 -16 -10 -9 -38 3 -38 16 0 12 10 13 30 0z m454 -5 c-4 -8 -11 -15
-16 -15 -6 0 -5 6 2 15 7 8 14 15 16 15 2 0 1 -7 -2 -15z m537 -16 c23 -23 17
-39 -9 -23 -16 11 -30 44 -18 44 3 0 15 -9 27 -21z m820 -14 c-1 -6 -6 -10
-11 -10 -6 0 -15 -7 -20 -15 -5 -8 -12 -11 -16 -7 -9 8 26 49 39 44 4 -1 8 -7
8 -12z m49 5 c0 -5 -5 -10 -11 -10 -5 0 -7 5 -4 10 3 6 8 10 11 10 2 0 4 -4 4
-10z m764 -46 c26 -27 56 -68 67 -91 11 -24 24 -43 29 -43 15 0 13 8 -16 66
-16 33 -31 51 -39 48 -7 -3 -16 0 -21 7 -5 9 -2 10 11 5 15 -5 16 -4 5 9 -7 9
-16 12 -19 7 -3 -5 -15 0 -26 11 -11 11 -14 17 -7 13 7 -5 24 -9 38 -11 14 -1
26 -4 27 -6 2 -2 14 -21 27 -41 14 -21 28 -38 32 -38 4 0 19 -18 33 -40 14
-22 30 -40 35 -40 21 0 8 27 -36 75 -25 28 -43 44 -38 36 5 -9 3 -12 -5 -7 -6
4 -9 12 -5 17 3 5 0 17 -8 26 -7 9 39 -15 102 -54 209 -127 371 -214 575 -309
22 -10 59 -29 81 -41 l42 -24 -18 -47 c-33 -88 -60 -285 -61 -452 -1 -85 2
-167 6 -183 l7 -27 -58 0 c-42 0 -69 6 -94 21 -42 25 -169 118 -190 138 -32
31 -266 215 -339 266 -42 29 -89 67 -105 84 -17 17 -36 31 -44 31 -24 0 -150
130 -172 177 -20 43 -20 51 -9 132 6 47 14 102 16 121 3 21 -3 59 -16 93 -11
32 -18 64 -15 71 3 7 24 23 47 35 63 33 103 24 161 -35z m-2614 37 c0 -5 -7
-11 -15 -15 -15 -5 -20 5 -8 17 9 10 23 9 23 -2z m967 -27 c11 -29 -3 -37 -25
-14 -12 13 -22 18 -22 12 0 -7 -4 -12 -10 -12 -5 0 -10 11 -10 24 0 23 2 24
31 14 17 -6 33 -17 36 -24z m963 26 c0 -5 -12 -10 -27 -10 -22 0 -25 2 -13 10
20 13 40 13 40 0z m-1693 -25 c-20 -19 -37 -19 -37 0 0 8 6 12 14 9 8 -3 17 0
21 6 4 6 9 9 12 6 3 -3 -2 -12 -10 -21z m636 13 c7 -7 12 -19 13 -25 3 -40 5
-44 16 -37 7 4 8 3 4 -4 -11 -18 -21 -14 -36 13 -7 14 -19 25 -27 25 -11 0
-11 4 -1 20 15 24 16 24 31 8z m1190 -40 c-4 -7 -8 -17 -9 -23 0 -5 -2 -19 -3
-30 -2 -11 -5 -15 -8 -7 -2 6 -11 12 -18 12 -8 0 -3 12 13 30 27 31 39 39 25
18z m-1043 -28 c0 -5 -5 -10 -11 -10 -5 0 -7 -4 -4 -10 3 -5 1 -10 -4 -10 -6
0 -11 9 -11 20 0 11 7 20 15 20 8 0 15 -4 15 -10z m927 -22 c-3 -7 -5 -2 -5
12 0 14 2 19 5 13 2 -7 2 -19 0 -25z m-920 -20 c-3 -8 -6 -5 -6 6 -1 11 2 17
5 13 3 -3 4 -12 1 -19z m973 -1 c0 -13 6 -29 13 -37 10 -12 9 -12 -5 -1 -10 7
-19 23 -19 35 -1 16 -2 17 -6 4 -2 -9 -13 -16 -24 -15 -22 1 -26 17 -4 17 8 0
15 5 15 10 0 6 7 10 15 10 9 0 15 -9 15 -23z m-864 -46 c-2 -40 -16 -52 -16
-14 0 25 6 43 15 43 2 0 2 -13 1 -29z m-409 -63 c-3 -8 -6 -5 -6 6 -1 11 2 17
5 13 3 -3 4 -12 1 -19z m383 -10 c0 -5 -4 -8 -10 -8 -5 0 -10 10 -10 23 0 18
2 19 10 7 5 -8 10 -18 10 -22z m-297 -3 c-3 -9 -8 -14 -10 -11 -3 3 -2 9 2 15
9 16 15 13 8 -4z m-343 -51 c6 -18 9 -42 5 -52 -3 -11 -7 -52 -9 -92 -3 -52
-9 -77 -21 -88 -16 -16 -17 -15 -11 11 4 16 2 27 -4 27 -5 0 -10 -4 -10 -10 0
-5 -7 -7 -15 -4 -8 4 -15 1 -15 -6 0 -6 -6 -18 -14 -26 -13 -12 -15 -10 -21
15 -8 38 33 242 52 257 23 19 51 4 63 -32z m-263 -6 c-3 -8 -6 -5 -6 6 -1 11
2 17 5 13 3 -3 4 -12 1 -19z m64 -15 c-9 -16 -10 -14 -11 12 0 21 3 26 11 18
8 -8 8 -16 0 -30z m-54 -25 c-3 -8 -6 -5 -6 6 -1 11 2 17 5 13 3 -3 4 -12 1
-19z m508 -71 c14 -22 13 -29 -25 -105 -23 -45 -45 -82 -50 -82 -4 0 2 19 14
43 31 58 47 107 35 107 -5 0 -9 -5 -9 -11 0 -17 -24 -36 -43 -33 -9 1 -18 -3
-19 -9 0 -7 -2 -16 -3 -22 -2 -5 -3 -15 -4 -22 0 -6 -11 -13 -23 -15 -12 -2
-29 -14 -36 -28 l-14 -25 7 28 c7 32 73 137 86 137 5 0 9 6 9 14 0 13 36 44
52 45 4 1 14 -9 23 -22z m-525 -23 c0 -14 7 -35 15 -47 17 -27 16 -87 -3 -87
-24 0 -49 106 -36 153 7 24 24 11 24 -19z m840 -4 c-8 -5 -19 -10 -25 -10 -5
0 -3 5 5 10 8 5 20 10 25 10 6 0 3 -5 -5 -10z m545 -20 c7 -12 -12 -40 -26
-40 -10 0 -12 34 -2 43 9 10 21 9 28 -3z m-487 -62 c20 -20 14 -32 -26 -52
-37 -18 -37 -18 -19 2 12 13 15 22 8 27 -6 3 -11 13 -11 21 0 17 31 19 48 2z
m-452 -148 c-12 -35 -14 -56 -7 -69 6 -10 12 -33 14 -52 3 -19 11 -52 20 -74
21 -53 47 -175 47 -219 0 -41 -15 -86 -30 -86 -13 0 -14 127 -1 132 6 2 -1 26
-15 53 -13 28 -24 60 -24 71 0 15 -8 24 -25 28 -22 6 -25 12 -25 50 0 26 5 46
13 49 10 4 10 7 0 18 -15 16 -17 33 -3 24 9 -6 16 50 11 102 -1 13 5 23 16 25
27 6 27 3 9 -52z m679 -60 c-4 -11 -2 -20 4 -20 6 0 11 10 12 23 0 22 0 22 10
-3 12 -30 8 -65 -8 -66 -7 -1 -23 -2 -35 -4 -13 -1 -17 -4 -10 -7 18 -7 14
-23 -6 -23 -13 0 -18 -7 -18 -21 1 -12 -4 -24 -10 -26 -19 -6 13 122 39 155
15 19 29 14 22 -8z m838 -20 c25 -16 48 -37 51 -46 9 -23 7 -52 -3 -58 -14 -9
-131 38 -131 52 0 16 27 82 34 82 3 0 25 -13 49 -30z m-929 -32 c-3 -4 0 -8 6
-8 7 0 8 -6 2 -17 -8 -13 -24 -17 -65 -17 -30 -1 -53 2 -50 7 2 4 19 7 37 7
39 0 50 8 35 26 -17 20 -2 36 21 22 10 -7 16 -16 14 -20z m-1070 -58 c4 0 3
-7 -4 -15 -11 -13 -14 -12 -26 11 -21 39 -17 65 4 32 9 -16 21 -28 26 -28z
m1026 2 c0 -5 -7 -9 -15 -9 -8 0 -15 4 -15 9 0 4 7 8 15 8 8 0 15 -4 15 -8z
m-190 -37 c0 -9 -9 -15 -21 -15 -18 0 -19 2 -9 15 7 8 16 15 21 15 5 0 9 -7 9
-15z m174 0 c-4 -8 -9 -15 -13 -15 -4 0 -8 7 -8 15 0 8 6 15 13 15 8 0 11 -6
8 -15z m159 -10 c-3 -8 -11 -15 -19 -15 -12 0 -12 4 -2 19 13 22 30 18 21 -4z
m716 -23 c28 -23 33 -33 28 -54 -7 -25 -12 -27 -83 -33 -41 -4 -79 -4 -84 1
-9 9 82 114 98 114 4 0 23 -13 41 -28z m-1822 1 c11 -10 25 -29 32 -41 20 -37
73 -53 164 -51 56 1 82 -2 85 -10 7 -22 -7 -56 -40 -92 -18 -19 -52 -60 -75
-90 -23 -30 -61 -72 -85 -95 -44 -41 -147 -106 -190 -119 -21 -7 -20 -5 6 16
l29 23 -23 8 c-23 9 -31 5 -92 -42 -37 -28 -36 -13 2 26 24 27 39 33 91 39 58
7 67 12 117 59 103 97 122 145 81 208 -16 23 -29 36 -29 28 0 -9 6 -24 14 -35
7 -11 16 -33 20 -48 l7 -28 -43 22 c-24 12 -51 28 -60 37 -12 9 -18 11 -18 4
0 -22 -20 -12 -30 13 -8 22 -12 24 -29 14 -40 -26 -81 21 -44 50 11 9 26 28
33 41 10 19 50 76 56 79 1 1 10 -7 21 -16z m1518 7 c-3 -5 -11 -10 -16 -10 -6
0 -7 5 -4 10 3 6 11 10 16 10 6 0 7 -4 4 -10z m-3195 -25 c0 -8 -4 -15 -10
-15 -5 0 -10 7 -10 15 0 8 5 15 10 15 6 0 10 -7 10 -15z m2381 -35 c-25 -22
-41 -26 -41 -10 0 6 7 10 15 10 8 0 15 5 15 10 0 6 8 10 18 10 14 -1 13 -4 -7
-20z m1437 -4 c-7 -8 -15 -12 -17 -11 -5 6 10 25 20 25 5 0 4 -6 -3 -14z m32
-17 c0 -5 4 -8 9 -4 20 12 19 -12 -1 -29 -18 -16 -20 -16 -15 -2 4 10 1 16 -8
16 -9 0 -12 6 -9 15 7 17 24 20 24 4z m-1302 -30 c-3 -8 -7 -3 -11 10 -4 17
-3 21 5 13 5 -5 8 -16 6 -23z m-55 -36 c-7 -2 -21 -2 -30 0 -10 3 -4 5 12 5
17 0 24 -2 18 -5z m693 -8 c-8 -8 -18 -15 -22 -15 -3 0 -1 7 6 15 7 8 17 15
22 15 5 0 3 -7 -6 -15z m-708 -25 c21 0 24 2 12 10 -11 7 -7 10 18 10 17 0 32
-4 32 -8 0 -10 -90 -32 -123 -31 l-22 0 23 9 c12 5 22 15 23 22 0 10 2 10 6 1
2 -7 17 -13 31 -13z m-2381 -52 c-3 -8 -6 -5 -6 6 -1 11 2 17 5 13 3 -3 4 -12
1 -19z m2830 -19 c-4 -26 -23 -43 -37 -34 -8 5 -9 10 -1 18 6 6 11 22 11 35 0
20 2 22 15 12 8 -7 13 -21 12 -31z m113 -67 c0 -33 -22 -68 -37 -59 -6 4 -14
19 -18 34 -5 20 -2 31 11 40 29 21 44 16 44 -15z m-970 -42 c0 -5 -5 -10 -11
-10 -5 0 -7 5 -4 10 3 6 8 10 11 10 2 0 4 -4 4 -10z m250 -30 c40 -4 45 -8 48
-32 2 -15 14 -36 28 -47 32 -25 30 -31 -7 -31 -40 0 -126 48 -133 75 -10 36
-7 57 7 48 6 -4 32 -10 57 -13z m160 -34 c0 -8 -5 -18 -10 -21 -13 -8 -42 14
-34 26 9 15 44 10 44 -5z m445 -28 c-7 -22 -72 -87 -87 -88 -23 -1 11 71 44
94 33 23 51 21 43 -6z m-41 -126 c-7 -26 -44 -31 -44 -6 0 19 32 46 42 36 4
-4 5 -17 2 -30z m-1464 -31 c-10 -15 -33 -42 -50 -61 -30 -34 -30 -34 -21 -7
6 15 16 33 21 40 6 6 20 27 31 46 16 26 23 31 29 21 5 -9 2 -23 -10 -39z"/>
<path d="M3485 2569 c-11 -17 -2 -18 19 -3 17 12 17 14 4 14 -9 0 -20 -5 -23
-11z"/>
<path d="M2811 764 c0 -11 3 -14 6 -6 3 7 2 16 -1 19 -3 4 -6 -2 -5 -13z"/>
<path d="M3450 895 c0 -8 5 -15 10 -15 6 0 10 7 10 15 0 8 -4 15 -10 15 -5 0
-10 -7 -10 -15z"/>
<path d="M2151 1421 c-9 -16 -6 -20 15 -25 32 -8 38 -4 29 23 -8 26 -31 27
-44 2z"/>
<path d="M2167 1342 c-20 -22 -22 -45 -5 -40 7 3 15 16 19 31 9 32 7 33 -14 9z"/>
<path d="M1984 1255 c-16 -40 -25 -46 -17 -12 4 17 0 14 -16 -11 -26 -41 -27
-55 -1 -47 11 4 20 2 20 -4 0 -6 -4 -11 -10 -11 -5 0 -10 -4 -10 -10 0 -14 67
-40 99 -39 21 1 22 2 5 6 -12 2 -32 15 -44 28 -20 21 -22 28 -12 50 11 23 16
25 86 25 68 0 74 2 80 23 3 12 6 24 6 27 0 3 -39 6 -86 7 l-85 3 -15 -35z"/>
<path d="M4835 290 c3 -5 11 -10 16 -10 6 0 7 5 4 10 -3 6 -11 10 -16 10 -6 0
-7 -4 -4 -10z"/>
<path d="M4915 210 c3 -5 11 -10 16 -10 6 0 7 5 4 10 -3 6 -11 10 -16 10 -6 0
-7 -4 -4 -10z"/>
<path d="M4960 186 c0 -4 10 -21 23 -38 16 -22 18 -32 10 -35 -7 -3 -13 -12
-13 -20 0 -12 3 -13 14 -4 10 8 16 9 21 1 3 -5 1 -10 -4 -10 -6 0 -11 -18 -11
-40 l0 -40 201 1 201 2 -74 28 c-78 31 -113 36 -124 18 -12 -20 -74 -1 -120
36 -24 20 -44 34 -44 31 0 -2 -18 14 -40 36 -22 23 -40 38 -40 34z"/>
<path d="M3110 100 c0 -6 7 -10 15 -10 8 0 15 2 15 4 0 2 -7 6 -15 10 -8 3
-15 1 -15 -4z"/>
</g>
</svg>
